<!DOCTYPE svg PUBLIC "-//W3C//DTD SVG 20010904//EN" "http://www.w3.org/TR/2001/REC-SVG-20010904/DTD/svg10.dtd">
<svg version="1.0" xmlns="http://www.w3.org/2000/svg" width="300px" height="300px" viewBox="0 0 3000 3000" preserveAspectRatio="xMidYMid meet">
<g id="layer101" fill="#164474" stroke="none">
<path d="M270 2979 c-16 -29 -24 -188 -12 -220 9 -21 26 -31 104 -57 88 -29 273 -73 366 -88 23 -4 42 -9 42 -13 0 -3 -31 -35 -68 -71 -38 -36 -89 -89 -114 -119 l-46 -54 -65 16 c-35 9 -71 19 -80 23 -16 6 -17 -12 -17 -201 0 -192 -1 -206 -17 -201 -56 16 -212 56 -217 56 -3 0 -6 -389 -6 -864 l0 -865 127 35 c71 18 131 34 136 34 4 0 7 -51 7 -114 l0 -114 113 -31 c302 -84 568 -121 909 -128 395 -8 688 28 1055 128 l113 31 0 114 c0 63 3 114 8 114 4 0 64 -16 135 -34 l127 -35 0 865 c0 475 -3 864 -6 864 -5 0 -161 -40 -216 -56 -17 -5 -18 9 -18 201 0 189 -1 207 -17 201 -9 -4 -45 -14 -80 -23 l-64 -16 -52 59 c-28 33 -83 89 -121 125 l-69 65 74 13 c131 22 292 63 371 93 88 33 92 40 92 138 -1 46 -33 150 -47 150 -1 0 -48 -18 -103 -39 -123 -48 -212 -74 -324 -96 -156 -30 -195 -44 -235 -85 l-37 -38 -72 33 c-39 18 -104 43 -144 56 -60 19 -72 27 -68 41 7 29 -40 75 -102 99 -42 16 -87 23 -168 27 -131 5 -167 -7 -178 -59 -13 -66 -16 -64 97 -64 131 0 248 -30 312 -78 35 -27 10 -28 -36 -3 -24 14 -71 32 -104 40 -66 18 -210 21 -249 7 -17 -7 -26 -7 -28 1 -5 13 -109 -20 -216 -68 l-72 -33 -17 25 c-25 39 -78 60 -255 103 -90 22 -224 60 -298 85 -74 26 -135 46 -137 46 -1 0 -7 -9 -13 -21z"/>
</g>
<g id="layer102" fill="#8d1536" stroke="none">
<path d="M1220 2711 c-61 -23 -155 -65 -168 -76 -1 -1 58 -101 132 -223 l134 -222 -43 0 -43 0 -68 113 c-124 207 -140 223 -260 268 -48 18 -58 19 -72 7 -81 -68 -150 -135 -202 -198 -35 -41 -64 -76 -65 -78 -2 -2 -30 4 -63 12 -33 9 -63 16 -66 16 -3 0 -6 -90 -6 -200 0 -153 -3 -200 -12 -200 -7 0 -61 13 -120 29 l-108 29 0 -799 c0 -440 3 -799 6 -799 3 0 59 14 124 30 65 17 124 30 129 30 7 0 11 -44 11 -125 l0 -124 53 -16 c77 -22 250 -61 347 -79 253 -46 318 -51 645 -51 282 0 338 3 474 23 205 31 421 76 539 113 l32 11 0 124 c0 81 4 124 11 124 5 0 64 -14 129 -30 65 -17 121 -30 124 -30 3 0 6 359 6 799 l0 799 -107 -29 c-60 -16 -114 -29 -120 -29 -10 0 -13 47 -13 200 0 110 -3 200 -6 200 -3 0 -34 -7 -67 -16 l-61 -16 -20 29 c-28 39 -183 198 -229 235 l-38 30 -54 -17 c-105 -33 -133 -62 -259 -272 l-67 -113 -44 0 -43 0 134 222 134 223 -38 19 c-20 11 -75 34 -121 52 l-84 32 -36 -25 c-34 -24 -42 -25 -141 -20 -75 3 -121 10 -160 26 -68 26 -69 26 -160 -8z m-533 -603 c15 -12 18 -48 3 -48 -5 0 -14 9 -20 21 -7 13 -19 19 -33 17 -19 -3 -22 -10 -25 -50 -3 -44 -1 -49 24 -60 22 -10 28 -10 32 0 6 20 32 14 32 -8 0 -28 -20 -34 -68 -21 -28 8 -42 18 -46 34 -8 29 -7 86 1 116 5 21 10 22 46 17 23 -4 47 -12 54 -18z m1653 -18 c0 -29 1 -30 39 -24 35 6 39 4 45 -19 10 -43 -9 -75 -51 -86 -64 -18 -63 -19 -63 74 0 69 3 85 15 85 10 0 15 -10 15 -30z m-1562 -33 c3 -34 6 -37 33 -37 27 0 29 3 29 36 0 24 4 34 13 32 8 -3 13 -32 15 -86 2 -68 0 -82 -13 -82 -11 0 -15 10 -15 35 0 28 -4 35 -20 37 -11 0 -26 1 -32 2 -7 1 -12 -5 -10 -13 4 -21 -8 -52 -19 -46 -15 10 -12 168 4 163 6 -3 13 -21 15 -41z m1480 -39 c-2 -54 -7 -83 -15 -86 -10 -3 -13 18 -13 82 0 71 3 86 15 86 13 0 15 -14 13 -82z m-80 -10 c-2 -54 -7 -83 -15 -86 -9 -2 -13 7 -13 28 0 29 -2 31 -32 28 -29 -3 -34 -7 -38 -37 -3 -19 -11 -36 -17 -39 -10 -3 -13 18 -13 82 0 68 3 86 14 86 9 0 16 -12 18 -32 2 -27 7 -32 23 -30 39 6 45 12 45 47 0 25 4 35 15 35 13 0 15 -14 13 -82z m-1235 41 c6 -24 65 -27 73 -4 6 14 34 22 34 9 0 -3 -12 -39 -26 -80 -37 -103 -54 -101 -88 10 -14 46 -26 86 -26 90 0 14 29 -7 33 -25z m1059 -12 c7 -38 -8 -64 -46 -77 -42 -13 -49 -40 -11 -40 14 0 25 5 25 10 0 6 7 10 15 10 8 0 15 -6 15 -13 0 -24 -24 -37 -67 -37 -42 0 -43 1 -43 34 0 37 12 51 53 61 35 9 38 45 3 45 -13 0 -26 -7 -30 -15 -8 -22 -26 -18 -26 5 0 25 26 39 71 40 31 0 37 -4 41 -23z m-882 -39 l1 -53 20 38 c11 20 24 37 30 37 5 0 18 -19 29 -42 l19 -43 0 53 c1 39 5 52 16 52 12 0 15 -15 15 -79 0 -44 -4 -82 -8 -85 -14 -9 -30 8 -47 52 -10 23 -20 42 -24 42 -4 0 -17 -20 -29 -45 -15 -31 -26 -43 -37 -39 -22 9 -22 164 0 164 11 0 15 -13 15 -52z m720 -33 c0 -68 -3 -85 -14 -85 -11 0 -16 15 -18 53 l-3 52 -30 -55 c-16 -30 -38 -56 -47 -58 -16 -3 -18 6 -18 82 0 70 3 86 15 86 12 0 15 -13 15 -57 l1 -58 35 63 c50 88 64 83 64 -23z m-510 47 c0 -25 5 -29 43 -38 42 -9 42 -9 42 -54 l0 -45 -57 -3 -58 -3 0 79 c0 43 3 82 7 85 14 14 23 6 23 -21z m318 19 c9 -5 12 -29 10 -82 l-3 -74 -55 0 -55 0 -3 73 c-3 67 -1 73 20 82 29 11 69 12 86 1z m-158 -81 c0 -47 -4 -80 -10 -80 -6 0 -10 33 -10 80 0 47 4 80 10 80 6 0 10 -33 10 -80z m-1015 -105 c347 -76 656 -109 1030 -109 374 0 683 33 1030 109 88 20 172 38 188 42 l27 6 0 -707 c0 -388 -2 -706 -4 -706 -3 0 -60 13 -128 30 -724 174 -1501 174 -2231 -1 -71 -17 -129 -30 -130 -28 -1 2 -1 321 1 708 l2 703 28 -5 c15 -4 99 -22 187 -42z"/>
</g>
<g id="layer103" fill="#d01d4a" stroke="none">
<path d="M1220 2711 c-64 -24 -156 -66 -169 -77 -2 -1 11 -22 27 -46 17 -24 72 -110 122 -193 50 -82 98 -153 108 -157 33 -13 387 -9 404 5 9 6 61 87 116 179 55 92 107 177 116 190 16 22 15 23 -21 42 -21 11 -76 34 -122 52 l-85 32 -32 -24 c-19 -15 -51 -27 -81 -30 -63 -8 -177 10 -230 36 -53 25 -62 25 -153 -9z"/>
<path d="M768 2523 c-42 -38 -104 -102 -139 -143 -34 -41 -63 -76 -64 -78 -2 -2 -30 4 -63 12 -33 9 -63 16 -66 16 -3 0 -6 -90 -6 -200 0 -153 -3 -200 -12 -200 -7 0 -61 13 -120 29 l-108 29 0 -799 c0 -440 3 -799 6 -799 3 0 59 13 124 30 65 16 124 30 129 30 7 0 11 -44 11 -125 l0 -124 53 -16 c77 -22 250 -61 347 -79 253 -46 318 -51 645 -51 282 0 338 3 474 23 205 31 421 76 539 113 l32 11 0 124 c0 81 4 124 11 124 5 0 64 -14 129 -30 65 -17 121 -30 124 -30 3 0 6 359 6 799 l0 799 -107 -29 c-60 -16 -114 -29 -120 -29 -10 0 -13 47 -13 200 0 110 -3 200 -6 200 -3 0 -34 -7 -67 -16 l-61 -16 -20 29 c-28 39 -183 198 -229 235 l-38 30 -54 -17 c-86 -27 -128 -67 -210 -200 -41 -66 -70 -121 -65 -123 14 -5 221 35 330 64 l95 25 27 -33 c20 -23 25 -34 15 -39 -15 -9 -228 -44 -348 -59 -243 -29 -645 -29 -887 0 -125 15 -335 51 -351 59 -10 6 -7 16 16 41 l30 34 99 -27 c105 -28 323 -71 329 -65 10 9 -131 218 -171 255 -36 32 -137 83 -165 83 -2 0 -39 -30 -81 -67z m-81 -415 c15 -12 18 -48 3 -48 -5 0 -14 9 -20 21 -7 13 -19 19 -33 17 -19 -3 -22 -10 -25 -50 -3 -44 -1 -49 24 -60 22 -10 28 -10 32 0 6 20 32 14 32 -8 0 -28 -20 -34 -68 -21 -28 8 -42 18 -46 34 -8 29 -7 86 1 116 5 21 10 22 46 17 23 -4 47 -12 54 -18z m1653 -18 c0 -29 1 -30 39 -24 35 6 39 4 45 -19 10 -43 -9 -75 -51 -86 -64 -18 -63 -19 -63 74 0 69 3 85 15 85 10 0 15 -10 15 -30z m-1562 -33 c3 -34 6 -37 33 -37 27 0 29 3 29 36 0 24 4 34 13 32 8 -3 13 -32 15 -86 2 -68 0 -82 -13 -82 -11 0 -15 10 -15 35 0 28 -4 35 -20 37 -11 0 -26 1 -32 2 -7 1 -12 -5 -10 -13 4 -21 -8 -52 -19 -46 -15 10 -12 168 4 163 6 -3 13 -21 15 -41z m1480 -39 c-2 -54 -7 -83 -15 -86 -10 -3 -13 18 -13 82 0 71 3 86 15 86 13 0 15 -14 13 -82z m-80 -10 c-2 -54 -7 -83 -15 -86 -9 -2 -13 7 -13 28 0 29 -2 31 -32 28 -29 -3 -34 -7 -38 -37 -3 -19 -11 -36 -17 -39 -10 -3 -13 18 -13 82 0 68 3 86 14 86 9 0 16 -12 18 -32 2 -27 7 -32 23 -30 39 6 45 12 45 47 0 25 4 35 15 35 13 0 15 -14 13 -82z m-1235 41 c6 -24 65 -27 73 -4 6 14 34 22 34 9 0 -3 -12 -39 -26 -80 -37 -103 -54 -101 -88 10 -14 46 -26 86 -26 90 0 14 29 -7 33 -25z m1059 -12 c7 -38 -8 -64 -46 -77 -42 -13 -49 -40 -11 -40 14 0 25 5 25 10 0 6 7 10 15 10 8 0 15 -6 15 -13 0 -24 -24 -37 -67 -37 -42 0 -43 1 -43 34 0 37 12 51 53 61 35 9 38 45 3 45 -13 0 -26 -7 -30 -15 -8 -22 -26 -18 -26 5 0 25 26 39 71 40 31 0 37 -4 41 -23z m-882 -39 l1 -53 20 38 c11 20 24 37 30 37 5 0 18 -19 29 -42 l19 -43 0 53 c1 39 5 52 16 52 12 0 15 -15 15 -79 0 -44 -4 -82 -8 -85 -14 -9 -30 8 -47 52 -10 23 -20 42 -24 42 -4 0 -17 -20 -29 -45 -15 -31 -26 -43 -37 -39 -22 9 -22 164 0 164 11 0 15 -13 15 -52z m720 -33 c0 -68 -3 -85 -14 -85 -11 0 -16 15 -18 53 l-3 52 -30 -55 c-16 -30 -38 -56 -47 -58 -16 -3 -18 6 -18 82 0 70 3 86 15 86 12 0 15 -13 15 -57 l1 -58 35 63 c50 88 64 83 64 -23z m-510 47 c0 -25 5 -29 43 -38 42 -9 42 -9 42 -54 l0 -45 -57 -3 -58 -3 0 79 c0 43 3 82 7 85 14 14 23 6 23 -21z m318 19 c9 -5 12 -29 10 -82 l-3 -74 -55 0 -55 0 -3 73 c-3 67 -1 73 20 82 29 11 69 12 86 1z m-158 -81 c0 -47 -4 -80 -10 -80 -6 0 -10 33 -10 80 0 47 4 80 10 80 6 0 10 -33 10 -80z m-1015 -105 c347 -76 656 -109 1030 -109 374 0 683 33 1030 109 88 20 172 38 188 42 l27 6 0 -707 c0 -388 -2 -706 -4 -706 -3 0 -60 13 -128 30 -724 174 -1501 174 -2231 -1 -71 -17 -129 -30 -130 -28 -1 2 -1 321 1 708 l2 703 28 -5 c15 -4 99 -22 187 -42z"/>
</g>
<g id="layer104" fill="#a6aaad" stroke="none">
<path d="M270 2979 c-6 -11 -9 -28 -7 -37 4 -13 5 -11 6 5 0 12 8 29 17 37 8 9 11 16 5 16 -6 0 -15 -9 -21 -21z"/>
<path d="M1570 2980 c34 -11 60 -11 35 0 -11 5 -29 8 -40 8 -16 0 -15 -2 5 -8z"/>
<path d="M1655 2953 c17 -8 41 -25 55 -37 l25 -21 -20 24 c-19 22 -66 51 -82 51 -4 -1 6 -8 22 -17z"/>
<path d="M400 2957 c0 -6 120 -47 134 -46 6 0 -11 8 -39 18 -76 27 -95 33 -95 28z"/>
<path d="M2713 2888 c1 -96 -5 -104 -94 -148 -43 -22 -79 -42 -79 -44 0 -8 74 15 132 41 55 24 57 27 64 70 7 50 0 121 -14 135 -6 6 -9 -14 -9 -54z"/>
<path d="M253 2840 c0 -41 2 -58 4 -37 2 20 2 54 0 75 -2 20 -4 3 -4 -38z"/>
<path d="M2405 2890 c-13 -5 -14 -9 -5 -9 8 0 24 4 35 9 13 5 14 9 5 9 -8 0 -24 -4 -35 -9z"/>
<path d="M635 2880 c11 -5 29 -8 40 -8 16 0 15 2 -5 8 -34 11 -60 11 -35 0z"/>
<path d="M280 2841 c0 -55 8 -69 49 -90 54 -28 125 -47 347 -95 111 -24 224 -54 250 -67 27 -13 54 -25 59 -27 6 -3 2 4 -8 15 -32 37 -129 71 -306 108 -183 38 -314 75 -344 98 -10 7 -21 31 -24 55 -7 53 -23 55 -23 3z"/>
<path d="M1463 2873 c9 -2 25 -2 35 0 9 3 1 5 -18 5 -19 0 -27 -2 -17 -5z"/>
<path d="M1256 2842 c6 -4 13 -12 15 -19 3 -8 10 -7 24 4 16 13 17 15 3 10 -10 -4 -18 -2 -18 3 0 6 -8 10 -17 10 -11 0 -14 -3 -7 -8z"/>
<path d="M1463 2843 c9 -2 25 -2 35 0 9 3 1 5 -18 5 -19 0 -27 -2 -17 -5z"/>
<path d="M2056 2781 l-39 -40 -39 20 c-22 11 -42 19 -44 17 -2 -3 16 -14 39 -25 l43 -21 46 44 c26 24 44 44 39 44 -4 0 -24 -18 -45 -39z"/>
<path d="M1650 2797 c0 -2 14 -13 30 -25 17 -13 30 -19 30 -14 0 4 -13 16 -30 25 -16 10 -30 16 -30 14z"/>
<path d="M1030 2760 c-27 -14 -38 -16 -50 -7 -13 10 -13 10 -2 -5 13 -16 16 -16 55 4 47 23 55 28 41 28 -5 -1 -25 -9 -44 -20z"/>
<path d="M1220 2711 c-63 -23 -156 -66 -168 -76 -2 -2 2 -12 9 -23 12 -19 14 -18 89 14 43 19 114 44 159 56 44 13 81 25 81 28 0 8 -62 30 -81 30 -8 -1 -48 -14 -89 -29z"/>
<path d="M1692 2720 c-12 -10 -22 -20 -22 -23 0 -2 19 -9 43 -16 23 -7 82 -29 131 -48 86 -35 89 -36 103 -17 12 17 9 20 -34 43 -27 13 -82 36 -123 52 -73 26 -76 27 -98 9z"/>
<path d="M395 2690 c11 -5 27 -9 35 -9 9 0 8 4 -5 9 -11 5 -27 9 -35 9 -9 0 -8 -4 5 -9z"/>
<path d="M740 2567 l-35 -42 42 35 c39 33 52 51 36 49 -5 0 -24 -19 -43 -42z"/>
<path d="M2221 2605 c1 -10 89 -92 89 -83 0 2 -20 24 -45 48 -25 24 -45 40 -44 35z"/>
<path d="M768 2523 c-42 -38 -104 -102 -139 -143 -34 -41 -63 -76 -64 -78 -2 -2 -30 4 -63 12 -33 9 -63 16 -66 16 -3 0 -6 -90 -6 -200 0 -153 -3 -200 -12 -200 -7 0 -61 13 -120 29 l-108 29 0 -799 c0 -440 3 -799 6 -799 3 0 59 13 124 30 65 16 124 30 129 30 7 0 11 -44 11 -125 l0 -124 53 -16 c77 -22 250 -61 347 -79 253 -46 318 -51 645 -51 282 0 338 3 474 23 205 31 421 76 539 113 l32 11 0 124 c0 81 4 124 11 124 5 0 64 -14 129 -30 65 -17 121 -30 124 -30 3 0 6 359 6 799 l0 799 -107 -29 c-60 -16 -114 -29 -120 -29 -10 0 -13 47 -13 200 0 110 -3 200 -6 200 -3 0 -34 -7 -67 -16 l-61 -16 -20 29 c-28 39 -183 198 -230 236 -36 29 -40 30 -75 18 -68 -23 -91 -33 -91 -41 0 -3 24 -23 53 -43 79 -55 235 -216 219 -226 -7 -4 -55 -15 -105 -24 -383 -68 -795 -79 -1177 -31 -175 22 -313 48 -317 60 -5 15 156 174 222 219 30 21 52 42 48 46 -8 7 -113 49 -123 49 -3 0 -40 -30 -82 -67z m-81 -415 c15 -12 18 -48 3 -48 -5 0 -14 9 -20 21 -7 13 -19 19 -33 17 -19 -3 -22 -10 -25 -50 -3 -44 -1 -49 24 -60 22 -10 28 -10 32 0 6 20 32 14 32 -8 0 -28 -20 -34 -68 -21 -28 8 -42 18 -46 34 -8 29 -7 86 1 116 5 21 10 22 46 17 23 -4 47 -12 54 -18z m1653 -18 c0 -29 1 -30 39 -24 35 6 39 4 45 -19 10 -43 -9 -75 -51 -86 -64 -18 -63 -19 -63 74 0 69 3 85 15 85 10 0 15 -10 15 -30z m-1562 -33 c3 -34 6 -37 33 -37 27 0 29 3 29 36 0 24 4 34 13 32 8 -3 13 -32 15 -86 2 -68 0 -82 -13 -82 -11 0 -15 10 -15 35 0 28 -4 35 -20 37 -11 0 -26 1 -32 2 -7 1 -12 -5 -10 -13 4 -21 -8 -52 -19 -46 -15 10 -12 168 4 163 6 -3 13 -21 15 -41z m1480 -39 c-2 -54 -7 -83 -15 -86 -10 -3 -13 18 -13 82 0 71 3 86 15 86 13 0 15 -14 13 -82z m-80 -10 c-2 -54 -7 -83 -15 -86 -9 -2 -13 7 -13 28 0 29 -2 31 -32 28 -29 -3 -34 -7 -38 -37 -3 -19 -11 -36 -17 -39 -10 -3 -13 18 -13 82 0 68 3 86 14 86 9 0 16 -12 18 -32 2 -27 7 -32 23 -30 39 6 45 12 45 47 0 25 4 35 15 35 13 0 15 -14 13 -82z m-1235 41 c6 -24 65 -27 73 -4 6 14 34 22 34 9 0 -3 -12 -39 -26 -80 -37 -103 -54 -101 -88 10 -14 46 -26 86 -26 90 0 14 29 -7 33 -25z m1059 -12 c7 -38 -8 -64 -46 -77 -42 -13 -49 -40 -11 -40 14 0 25 5 25 10 0 6 7 10 15 10 8 0 15 -6 15 -13 0 -24 -24 -37 -67 -37 -42 0 -43 1 -43 34 0 37 12 51 53 61 35 9 38 45 3 45 -13 0 -26 -7 -30 -15 -8 -22 -26 -18 -26 5 0 25 26 39 71 40 31 0 37 -4 41 -23z m-882 -39 l1 -53 20 38 c11 20 24 37 30 37 5 0 18 -19 29 -42 l19 -43 0 53 c1 39 5 52 16 52 12 0 15 -15 15 -79 0 -44 -4 -82 -8 -85 -14 -9 -30 8 -47 52 -10 23 -20 42 -24 42 -4 0 -17 -20 -29 -45 -15 -31 -26 -43 -37 -39 -22 9 -22 164 0 164 11 0 15 -13 15 -52z m720 -33 c0 -68 -3 -85 -14 -85 -11 0 -16 15 -18 53 l-3 52 -30 -55 c-16 -30 -38 -56 -47 -58 -16 -3 -18 6 -18 82 0 70 3 86 15 86 12 0 15 -13 15 -57 l1 -58 35 63 c50 88 64 83 64 -23z m-510 47 c0 -25 5 -29 43 -38 42 -9 42 -9 42 -54 l0 -45 -57 -3 -58 -3 0 79 c0 43 3 82 7 85 14 14 23 6 23 -21z m318 19 c9 -5 12 -29 10 -82 l-3 -74 -55 0 -55 0 -3 73 c-3 67 -1 73 20 82 29 11 69 12 86 1z m-158 -81 c0 -47 -4 -80 -10 -80 -6 0 -10 33 -10 80 0 47 4 80 10 80 6 0 10 -33 10 -80z m-1015 -105 c347 -76 656 -109 1030 -109 374 0 683 33 1030 109 88 20 172 38 188 42 l27 6 0 -707 c0 -388 -2 -706 -4 -706 -3 0 -60 13 -128 30 -724 174 -1501 174 -2231 -1 -71 -17 -129 -30 -130 -28 -1 2 -1 321 1 708 l2 703 28 -5 c15 -4 99 -22 187 -42z m1525 -1299 c143 -17 291 -39 378 -57 l52 -10 0 -93 0 -93 -57 -16 c-84 -24 -288 -62 -438 -84 -202 -28 -685 -26 -891 5 -128 19 -361 65 -441 88 -22 6 -23 11 -23 99 l0 93 52 12 c117 25 340 53 588 74 110 9 652 -3 780 -18z"/>
<path d="M2353 2033 c-18 -7 -16 -53 1 -53 19 0 48 29 43 44 -4 12 -26 17 -44 9z"/>
<path d="M964 1984 c3 -9 6 -23 6 -32 0 -21 15 -5 25 26 5 18 3 22 -15 22 -16 0 -20 -4 -16 -16z"/>
<path d="M1337 1944 c-4 -4 -7 -16 -7 -26 0 -13 8 -18 31 -18 26 0 30 3 27 23 -3 22 -36 36 -51 21z"/>
<path d="M1574 1996 c-3 -7 -4 -33 -2 -57 3 -39 6 -44 28 -44 23 0 25 4 28 58 3 55 2 57 -23 57 -14 0 -28 -6 -31 -14z"/>
<path d="M370 1551 l0 -211 45 0 45 0 0 76 0 77 67 -6 c37 -4 70 -12 75 -19 5 -7 7 -40 6 -73 l-2 -60 47 -3 47 -3 0 184 c0 183 0 185 -22 191 -64 17 -68 13 -68 -70 l0 -77 -46 7 c-26 3 -60 6 -75 6 l-29 0 0 85 c0 84 0 85 -27 91 -16 3 -36 8 -45 11 -17 4 -18 -11 -18 -206z"/>
<path d="M2440 1721 c-23 -6 -25 -12 -30 -81 -5 -69 -10 -85 -68 -189 -34 -63 -62 -116 -62 -118 0 -1 22 -3 50 -3 l49 0 39 82 39 82 42 -77 43 -77 43 0 c24 0 46 3 48 8 2 4 -24 59 -59 122 -58 106 -63 120 -66 185 -3 76 -10 83 -68 66z"/>
<path d="M2093 1674 c-62 -7 -117 -15 -123 -19 -6 -4 -10 -68 -10 -171 l0 -164 123 0 c67 0 127 4 133 8 6 4 19 22 28 40 l17 34 -100 -7 -101 -8 0 32 c0 35 10 39 100 43 l55 3 3 37 3 37 -80 -6 -81 -6 0 35 0 36 83 7 c114 9 117 10 117 51 0 40 9 39 -167 18z"/>
<path d="M792 1664 c-21 -14 -22 -22 -22 -153 0 -189 -3 -185 163 -189 l124 -4 22 28 c18 23 21 40 21 135 0 161 -9 173 -147 189 -118 13 -135 13 -161 -6z m192 -70 c13 -5 16 -24 16 -106 l0 -99 -67 3 -68 3 -3 103 -3 102 55 0 c30 0 61 -3 70 -6z"/>
<path d="M1857 1653 c-33 -4 -43 -12 -88 -74 -31 -42 -55 -67 -62 -63 -36 21 -47 39 -47 81 l0 43 -50 0 -50 0 2 -162 3 -163 48 -3 47 -3 0 72 0 72 74 -71 c72 -70 75 -72 125 -72 28 0 51 3 51 8 0 4 -29 34 -65 67 l-66 60 71 102 c38 56 70 104 70 107 0 3 -6 5 -12 4 -7 -1 -30 -3 -51 -5z"/>
<path d="M1220 1643 c-46 -16 -50 -31 -50 -163 0 -164 -1 -164 149 -168 92 -2 110 0 139 17 28 18 32 26 32 61 l0 41 -47 -3 c-41 -3 -48 -6 -51 -26 -3 -21 -7 -23 -65 -20 l-62 3 0 95 0 95 39 3 c58 5 85 -5 92 -33 5 -22 12 -25 51 -25 l44 0 -3 42 c-5 61 -30 75 -153 81 -55 3 -107 2 -115 0z"/>
<path d="M370 924 l0 -306 28 6 c15 3 95 17 177 31 174 30 197 37 230 77 23 27 25 37 25 138 l0 108 -31 26 c-30 25 -35 26 -165 26 l-134 0 0 100 0 100 -65 0 -65 0 0 -306z m328 -65 c2 -37 -1 -59 -10 -66 -7 -6 -54 -15 -104 -22 -117 -14 -122 -14 -101 2 11 8 17 30 19 72 3 58 4 60 33 66 17 4 59 6 95 6 l65 -2 3 -56z"/>
<path d="M1905 1219 c-11 -6 -69 -78 -130 -161 l-110 -151 -3 156 -3 157 -64 0 -65 0 2 -242 3 -243 66 -3 c50 -2 71 1 82 13 9 8 62 79 119 156 l103 140 5 -158 5 -158 30 -6 c17 -4 45 -7 63 -8 l32 -1 0 255 0 255 -37 0 c-21 0 -47 2 -58 5 -11 2 -29 -1 -40 -6z"/>
<path d="M2172 963 l3 -268 188 -29 c179 -28 190 -28 223 -13 19 9 39 28 44 43 6 14 10 118 10 231 0 307 4 303 -284 303 l-186 0 2 -267z m297 151 l31 -6 0 -169 0 -169 -32 0 c-17 0 -72 5 -122 12 -66 8 -84 13 -68 19 21 8 22 13 22 157 0 82 3 152 7 155 8 9 120 9 162 1z"/>
<path d="M975 1208 c-52 -28 -55 -40 -55 -241 l0 -189 31 -30 30 -31 166 7 c255 11 256 12 258 244 0 92 -2 177 -7 189 -4 13 -22 32 -40 43 -30 18 -50 20 -198 20 -101 -1 -173 -5 -185 -12z m293 -227 c1 -74 -1 -138 -6 -143 -5 -5 -53 -12 -106 -15 l-96 -6 0 152 0 152 103 -3 102 -3 3 -134z"/>
<path d="M2411 2413 c30 -35 60 -63 69 -62 13 0 13 1 0 6 -8 3 -39 31 -68 62 l-54 56 53 -62z"/>
<path d="M590 2413 c-23 -27 -49 -51 -58 -55 -14 -6 -15 -7 -1 -7 8 -1 37 24 63 54 26 30 45 55 42 55 -2 0 -23 -21 -46 -47z"/>
<path d="M2618 2198 c2 -112 6 -206 10 -210 4 -4 6 87 4 202 -1 116 -6 210 -10 210 -4 0 -6 -91 -4 -202z"/>
<path d="M195 2030 c11 -5 27 -9 35 -9 9 0 8 4 -5 9 -11 5 -27 9 -35 9 -9 0 -8 -4 5 -9z"/>
<path d="M2785 2030 c-13 -5 -14 -9 -5 -9 8 0 24 4 35 9 13 5 14 9 5 9 -8 0 -24 -4 -35 -9z"/>
<path d="M255 360 c-13 -5 -14 -9 -5 -9 8 0 24 4 35 9 13 5 14 9 5 9 -8 0 -24 -4 -35 -9z"/>
<path d="M2725 360 c11 -5 27 -9 35 -9 9 0 8 4 -5 9 -11 5 -27 9 -35 9 -9 0 -8 -4 5 -9z"/>
<path d="M2525 150 c-13 -5 -14 -9 -5 -9 8 0 24 4 35 9 13 5 14 9 5 9 -8 0 -24 -4 -35 -9z"/>
<path d="M525 130 c11 -5 27 -9 35 -9 9 0 8 4 -5 9 -11 5 -27 9 -35 9 -9 0 -8 -4 5 -9z"/>
<path d="M2455 130 c-13 -5 -14 -9 -5 -9 8 0 24 4 35 9 13 5 14 9 5 9 -8 0 -24 -4 -35 -9z"/>
<path d="M993 33 c9 -2 25 -2 35 0 9 3 1 5 -18 5 -19 0 -27 -2 -17 -5z"/>
<path d="M1983 33 c9 -2 25 -2 35 0 9 3 1 5 -18 5 -19 0 -27 -2 -17 -5z"/>
<path d="M1068 23 c12 -2 30 -2 40 0 9 3 -1 5 -23 4 -22 0 -30 -2 -17 -4z"/>
<path d="M1908 23 c12 -2 30 -2 40 0 9 3 -1 5 -23 4 -22 0 -30 -2 -17 -4z"/>
<path d="M1158 13 c12 -2 32 -2 45 0 12 2 2 4 -23 4 -25 0 -35 -2 -22 -4z"/>
<path d="M1808 13 c12 -2 32 -2 45 0 12 2 2 4 -23 4 -25 0 -35 -2 -22 -4z"/>
<path d="M1273 3 c15 -2 37 -2 50 0 12 2 0 4 -28 4 -27 0 -38 -2 -22 -4z"/>
<path d="M1693 3 c15 -2 39 -2 55 0 15 2 2 4 -28 4 -30 0 -43 -2 -27 -4z"/>
</g>
<g id="layer105" fill="#fefefe" stroke="none">
<path d="M2721 2870 c-4 -79 -10 -89 -82 -127 -67 -35 -49 -35 34 -1 54 23 60 36 54 123 l-3 60 -3 -55z"/>
<path d="M283 2825 c4 -23 15 -47 28 -57 31 -26 150 -61 366 -107 106 -23 213 -50 238 -61 64 -27 56 -14 -10 16 -30 14 -125 40 -212 58 -187 40 -305 71 -353 94 -27 13 -36 24 -38 47 -2 17 -8 35 -14 40 -7 7 -9 -2 -5 -30z"/>
<path d="M1248 2714 c-81 -27 -188 -74 -188 -83 0 -3 4 -12 8 -18 6 -10 28 -4 91 22 45 19 111 43 147 52 35 9 64 20 64 24 0 4 -12 11 -27 17 -21 7 -44 4 -95 -14z"/>
<path d="M1696 2711 c-16 -18 -15 -19 27 -30 25 -6 82 -27 127 -46 65 -28 85 -33 92 -23 13 21 10 24 -52 52 -47 21 -166 66 -175 66 -1 0 -10 -8 -19 -19z"/>
<path d="M883 2526 c-92 -71 -128 -104 -184 -171 -56 -65 -58 -70 -38 -77 18 -7 32 3 88 64 36 39 98 97 136 127 78 62 85 72 58 82 -13 5 -32 -3 -60 -25z"/>
<path d="M2050 2550 c-17 -10 -21 -6 72 -79 37 -29 99 -86 136 -127 59 -64 72 -73 91 -66 21 7 19 11 -36 74 -78 89 -215 208 -240 208 -4 0 -15 -5 -23 -10z"/>
<path d="M664 2498 l-29 -33 33 29 c17 17 32 31 32 33 0 8 -8 1 -36 -29z"/>
<path d="M500 2077 l0 -165 48 -11 c368 -86 987 -120 1407 -77 165 17 410 54 508 77 l47 11 0 165 0 165 -27 -7 c-621 -156 -1335 -156 -1955 0 l-28 7 0 -165z m188 37 c23 -15 30 -48 11 -60 -7 -4 -19 2 -28 13 -9 11 -24 23 -34 26 -16 6 -18 1 -15 -46 2 -41 7 -53 22 -55 10 -2 22 2 26 8 11 18 40 4 40 -19 0 -28 -26 -40 -67 -31 -56 13 -63 25 -63 105 0 50 4 75 13 78 18 7 69 -4 95 -19z m1652 -20 c0 -24 3 -26 33 -20 47 8 59 -4 55 -55 -3 -49 -25 -66 -89 -71 l-34 -3 -3 74 c-3 83 1 101 23 101 10 0 15 -9 15 -26z m-1562 -26 c2 -29 8 -37 27 -40 21 -4 24 -1 27 26 2 19 9 32 19 34 23 4 26 -12 21 -100 -3 -57 -8 -78 -18 -78 -7 0 -16 12 -20 28 -10 48 -13 52 -34 52 -16 0 -20 -7 -20 -30 0 -23 -4 -30 -20 -30 -19 0 -20 7 -20 91 0 81 2 90 18 87 12 -2 18 -14 20 -40z m1482 -48 c0 -83 -1 -90 -20 -90 -18 0 -20 7 -20 83 0 85 3 97 27 97 10 0 13 -22 13 -90z m-82 -17 c-3 -74 -6 -88 -20 -91 -15 -3 -18 4 -18 33 0 30 -3 36 -16 31 -9 -3 -20 -6 -25 -6 -5 0 -9 -16 -9 -35 0 -28 -4 -35 -20 -35 -19 0 -20 7 -20 90 0 83 1 90 20 90 16 0 20 -7 20 -35 0 -35 5 -40 34 -29 10 4 16 18 16 40 0 28 4 34 20 34 20 0 21 -5 18 -87z m-1230 52 c24 -27 62 -34 62 -11 0 19 14 28 33 20 13 -5 11 -18 -12 -87 -39 -116 -64 -116 -100 3 -12 38 -24 76 -27 85 -10 24 20 18 44 -10z m1050 3 c7 -7 12 -27 12 -45 0 -30 -4 -36 -46 -53 -25 -11 -42 -24 -39 -30 10 -15 33 -12 43 7 11 19 42 11 42 -10 0 -38 -101 -59 -123 -26 -19 30 1 70 43 86 22 9 40 22 40 30 0 18 -25 17 -44 -2 -18 -18 -46 -20 -46 -2 0 22 24 45 50 50 46 8 56 7 68 -5z m-877 -50 l0 -53 16 33 c9 17 24 32 33 32 9 0 24 -15 33 -32 l16 -33 0 48 c1 41 4 48 19 45 15 -3 17 -15 17 -88 0 -79 -1 -85 -21 -88 -18 -3 -25 6 -39 42 -10 25 -21 46 -25 46 -4 0 -15 -18 -24 -41 -13 -32 -21 -40 -39 -37 -20 3 -22 9 -25 68 -4 77 3 110 23 110 11 0 15 -13 16 -52z m727 -45 c-3 -73 -6 -88 -20 -91 -14 -3 -17 6 -20 50 l-3 53 -28 -52 c-19 -37 -33 -53 -47 -53 -18 0 -20 7 -20 85 0 67 3 85 14 85 11 0 16 -14 18 -47 l3 -48 30 52 c22 40 36 53 53 53 22 0 23 -2 20 -87z m-508 47 c0 -27 3 -30 33 -30 42 0 57 -15 57 -60 0 -49 -15 -60 -77 -60 l-53 0 0 90 c0 83 1 90 20 90 16 0 20 -7 20 -30z m160 -60 c0 -83 -1 -90 -20 -90 -19 0 -20 7 -20 90 0 83 1 90 20 90 19 0 20 -7 20 -90z m164 74 c11 -28 6 -140 -6 -152 -7 -7 -34 -12 -60 -12 -57 0 -62 8 -62 90 0 84 4 90 68 90 40 0 55 -4 60 -16z"/>
<path d="M2347 2023 c-16 -15 -6 -34 15 -31 29 4 38 38 10 38 -10 0 -22 -3 -25 -7z"/>
<path d="M970 1981 c0 -12 5 -21 10 -21 6 0 10 6 10 14 0 8 -4 18 -10 21 -5 3 -10 -3 -10 -14z"/>
<path d="M1340 1919 c0 -15 5 -20 22 -17 34 5 37 38 4 38 -20 0 -26 -5 -26 -21z"/>
<path d="M1580 1949 c0 -47 2 -50 23 -47 19 3 22 10 25 51 3 45 2 47 -22 47 -24 0 -26 -3 -26 -51z"/>
<path d="M380 1552 l0 -200 35 -4 c20 -2 38 -2 40 1 3 2 5 38 5 78 l0 74 63 -6 c91 -9 87 -6 87 -85 l0 -70 40 0 40 0 0 180 0 180 -24 0 c-13 0 -31 3 -40 6 -14 5 -16 -5 -16 -76 l0 -82 -27 6 c-16 2 -49 8 -75 11 l-48 6 0 79 c0 43 -3 81 -7 83 -5 3 -23 8 -40 12 l-33 7 0 -200z"/>
<path d="M2433 1713 c-9 -3 -13 -26 -13 -65 0 -55 -6 -71 -66 -185 -36 -68 -64 -127 -61 -130 3 -3 23 -2 44 2 37 6 41 11 76 81 20 40 41 74 46 74 5 0 25 -31 45 -70 20 -38 40 -71 44 -73 4 -2 24 -2 45 1 l37 4 -65 123 c-60 113 -65 128 -65 184 0 60 0 61 -27 60 -16 0 -34 -3 -40 -6z"/>
<path d="M2070 1666 l-95 -11 -3 -167 -2 -168 33 0 c19 0 75 3 124 6 86 7 91 8 108 36 l17 29 -99 -2 -98 -2 0 34 0 34 78 9 c77 8 77 8 77 38 l0 30 -77 -4 -78 -3 -3 37 c-4 41 -2 42 126 53 71 7 72 7 72 36 0 28 -2 29 -42 28 -24 -1 -86 -7 -138 -13z"/>
<path d="M786 1648 c-12 -17 -16 -49 -16 -135 0 -122 8 -156 40 -173 12 -6 73 -12 136 -13 148 -2 144 -6 144 159 0 153 -5 161 -105 174 -39 5 -96 9 -127 10 -48 0 -59 -4 -72 -22z m217 -55 c11 -6 9 -201 -3 -208 -5 -3 -39 -3 -75 1 l-65 7 0 110 0 109 68 -7 c37 -4 70 -9 75 -12z"/>
<path d="M1818 1638 c-8 -7 -34 -42 -58 -76 l-42 -64 -26 24 c-39 34 -42 39 -42 81 0 37 0 37 -40 37 l-40 0 0 -160 0 -160 40 0 40 0 0 70 c0 39 3 70 8 70 4 0 39 -31 77 -70 68 -68 71 -70 120 -70 l50 0 -62 61 c-35 34 -63 64 -63 68 0 3 25 42 56 86 83 119 82 115 36 115 -21 0 -45 -6 -54 -12z"/>
<path d="M1194 1626 c-17 -13 -19 -29 -22 -133 -3 -109 -2 -121 18 -146 21 -27 23 -27 134 -27 135 0 156 10 156 71 l0 40 -37 -3 c-30 -2 -38 -8 -43 -28 -5 -21 -12 -25 -50 -28 -89 -7 -90 -5 -90 109 l0 100 68 -3 c61 -3 67 -5 70 -25 3 -19 10 -23 43 -23 39 0 39 0 39 41 0 36 -3 41 -35 55 -47 19 -224 19 -251 0z"/>
<path d="M380 925 c0 -194 3 -295 10 -295 42 0 358 64 380 77 47 27 60 62 60 158 0 152 -25 172 -211 161 l-119 -7 0 101 0 100 -60 0 -60 0 0 -295z m318 -64 c2 -35 -1 -68 -6 -73 -9 -9 -227 -41 -245 -35 -7 2 2 11 20 20 30 16 32 21 35 80 l3 62 55 6 c30 3 73 6 95 5 l40 -1 3 -64z"/>
<path d="M994 1209 c-64 -18 -69 -33 -72 -217 -6 -276 -3 -279 239 -263 165 11 208 23 229 60 6 11 10 92 10 189 0 192 -7 212 -78 232 -45 12 -285 12 -328 -1z m271 -234 l0 -150 -95 -6 c-54 -3 -100 -1 -107 4 -14 10 -19 287 -6 301 4 4 52 5 107 4 l101 -3 0 -150z"/>
<path d="M1537 988 c-3 -128 -3 -236 0 -240 2 -5 34 -8 71 -8 l68 0 114 155 c63 85 118 154 122 155 4 0 9 -73 10 -162 l3 -163 58 -3 57 -3 0 251 0 250 -65 0 c-79 0 -72 7 -209 -183 -55 -75 -103 -137 -108 -137 -4 0 -8 72 -8 160 l0 160 -54 0 -53 0 -6 -232z"/>
<path d="M2170 960 c0 -143 3 -260 8 -260 4 0 78 -11 165 -25 203 -32 231 -32 262 0 l25 24 0 231 0 232 -29 29 -29 29 -201 0 -201 0 0 -260z m338 -18 c2 -147 0 -173 -13 -178 -13 -5 -128 6 -225 23 l-35 6 33 13 32 14 0 150 0 151 103 -3 102 -3 3 -173z"/>
<path d="M543 473 c-9 -3 -13 -36 -13 -113 l0 -108 128 -31 c300 -72 544 -101 852 -101 301 0 542 29 843 101 l127 31 0 108 c0 106 -4 120 -36 120 -2 0 -4 -43 -4 -95 l0 -94 -37 -10 c-118 -31 -169 -42 -273 -61 -389 -70 -742 -76 -1130 -19 -124 18 -299 54 -392 79 l-38 11 0 94 c0 52 -3 95 -7 94 -5 0 -14 -3 -20 -6z"/>
</g>


</svg>