<!DOCTYPE svg PUBLIC "-//W3C//DTD SVG 20010904//EN" "http://www.w3.org/TR/2001/REC-SVG-20010904/DTD/svg10.dtd">
<svg version="1.0" xmlns="http://www.w3.org/2000/svg" width="300px" height="300px" viewBox="0 0 3000 3000" preserveAspectRatio="xMidYMid meet">
<g id="layer101" fill="#1d0e11" stroke="none">
<path d="M270 2979 c-16 -29 -24 -188 -12 -220 9 -21 26 -31 104 -57 88 -29 273 -73 366 -88 23 -4 42 -9 42 -13 0 -3 -31 -35 -68 -71 -38 -36 -89 -89 -114 -119 l-46 -54 -65 16 c-35 9 -71 19 -80 23 -16 6 -17 -12 -17 -201 0 -192 -1 -206 -17 -201 -56 16 -212 56 -217 56 -3 0 -6 -389 -6 -864 l0 -865 127 35 c71 18 131 34 136 34 4 0 7 -51 7 -114 l0 -114 113 -31 c302 -84 568 -121 909 -128 395 -8 688 28 1055 128 l113 31 0 114 c0 63 3 114 8 114 4 0 64 -16 135 -34 l127 -35 0 865 c0 475 -3 864 -6 864 -5 0 -161 -40 -216 -56 -17 -5 -18 9 -18 201 0 189 -1 207 -17 201 -9 -4 -45 -14 -80 -23 l-64 -16 -52 59 c-28 33 -83 89 -121 125 l-69 65 74 13 c131 22 292 63 371 93 88 33 92 40 92 138 -1 46 -33 150 -47 150 -1 0 -48 -18 -103 -39 -123 -48 -212 -74 -324 -96 -156 -30 -195 -44 -235 -85 l-37 -38 -72 33 c-39 18 -104 43 -144 56 -60 19 -72 27 -68 41 7 29 -40 75 -102 99 -42 16 -87 23 -168 27 -131 5 -167 -7 -178 -59 -13 -66 -16 -64 97 -64 131 0 248 -30 312 -78 35 -27 10 -28 -36 -3 -24 14 -71 32 -104 40 -66 18 -210 21 -249 7 -17 -7 -26 -7 -28 1 -5 13 -109 -20 -216 -68 l-72 -33 -17 25 c-25 39 -78 60 -255 103 -90 22 -224 60 -298 85 -74 26 -135 46 -137 46 -1 0 -7 -9 -13 -21z"/>
</g>
<g id="layer102" fill="#174574" stroke="none">
<path d="M270 2979 c-16 -29 -24 -188 -12 -220 9 -21 26 -31 104 -57 88 -29 273 -73 366 -88 23 -4 42 -9 42 -13 0 -3 -31 -35 -68 -71 -38 -36 -89 -89 -114 -119 l-46 -54 -65 16 c-35 9 -71 19 -80 23 -16 6 -17 -12 -17 -201 0 -192 -1 -206 -17 -201 -56 16 -212 56 -217 56 -3 0 -6 -389 -6 -864 l0 -865 127 35 c71 18 131 34 136 34 4 0 7 -51 7 -114 l0 -114 113 -31 c302 -84 568 -121 909 -128 395 -8 688 28 1055 128 l113 31 0 114 c0 63 3 114 8 114 4 0 64 -16 135 -34 l127 -35 0 865 c0 475 -3 864 -6 864 -5 0 -161 -40 -216 -56 -17 -5 -18 9 -18 201 0 189 -1 207 -17 201 -9 -4 -45 -14 -80 -23 l-64 -16 -52 59 c-28 33 -83 89 -121 125 l-69 65 74 13 c131 22 292 63 371 93 88 33 92 40 92 138 -1 46 -33 150 -47 150 -1 0 -48 -18 -103 -39 -123 -48 -212 -74 -324 -96 -156 -30 -195 -44 -235 -85 l-37 -38 -72 33 c-39 18 -104 43 -144 56 -60 19 -72 27 -68 41 7 29 -40 75 -102 99 -42 16 -87 23 -168 27 -131 5 -167 -7 -178 -59 -13 -66 -16 -64 97 -64 131 0 248 -30 312 -78 35 -27 10 -28 -36 -3 -24 14 -71 32 -104 40 -66 18 -210 21 -249 7 -17 -7 -26 -7 -28 1 -5 13 -109 -20 -216 -68 l-72 -33 -17 25 c-25 39 -78 60 -255 103 -90 22 -224 60 -298 85 -74 26 -135 46 -137 46 -1 0 -7 -9 -13 -21z m1553 -2449 c14 -17 14 -20 2 -20 -8 0 -15 6 -15 14 0 8 -8 17 -17 19 -14 4 -14 5 -3 6 9 0 23 -8 33 -19z m100 0 c14 -17 14 -20 2 -20 -8 0 -15 6 -15 14 0 8 -8 17 -17 19 -14 4 -14 5 -3 6 9 0 23 -8 33 -19z m-535 -18 c-13 -2 -18 -13 -18 -39 0 -20 -3 -33 -7 -29 -8 8 -10 13 -12 45 0 11 -9 21 -18 23 -10 3 2 4 27 4 25 0 37 -1 28 -4z m100 1 c-12 -3 -19 -15 -20 -36 l-1 -32 -4 32 c-3 19 -11 33 -21 36 -9 2 1 4 23 4 22 0 32 -2 23 -4z m200 0 c-14 -3 -18 -16 -20 -51 -1 -45 -2 -46 -5 -8 -5 48 2 66 24 65 17 -1 17 -2 1 -6z m79 -18 c1 -16 1 -16 -3 -2 -7 22 -44 23 -44 0 0 -9 -3 -14 -6 -10 -4 3 -4 13 0 22 9 23 50 15 53 -10z m-659 -29 c-1 -14 -6 -22 -10 -20 -12 7 -10 44 2 44 5 0 9 -11 8 -24z m-417 -109 c-8 -8 -11 -7 -11 4 0 20 13 34 18 19 3 -7 -1 -17 -7 -23z m1479 7 c0 -8 -4 -12 -10 -9 -5 3 -10 13 -10 21 0 8 5 12 10 9 6 -3 10 -13 10 -21z m-266 10 c9 -3 16 -14 16 -23 -1 -15 -2 -15 -13 0 -7 9 -21 19 -32 22 -15 3 -16 5 -3 6 9 0 23 -2 32 -5z m-1004 -18 c0 -7 -9 -16 -20 -19 -11 -3 -20 -1 -20 4 0 5 7 9 15 9 8 0 15 5 15 10 0 6 2 10 5 10 3 0 5 -6 5 -14z m62 2 c-5 -7 -12 -22 -15 -33 -5 -20 -5 -20 -6 1 0 11 4 25 11 32 16 16 23 15 10 0z m1078 -14 c0 -8 -4 -14 -10 -14 -5 0 -10 9 -10 21 0 11 5 17 10 14 6 -3 10 -13 10 -21z m-1289 -17 c-8 -8 -11 -7 -11 4 0 20 13 34 18 19 3 -7 -1 -17 -7 -23z m799 -8 c0 -16 -4 -29 -10 -29 -5 0 -10 16 -10 36 0 21 4 33 10 29 6 -3 10 -19 10 -36z m305 -16 c-4 -27 -8 -53 -8 -60 0 -7 -3 -10 -7 -8 -7 4 10 115 18 115 2 0 1 -21 -3 -47z m248 0 c-3 -24 -9 -40 -13 -38 -4 3 -3 23 2 45 13 51 18 47 11 -7z m-799 10 c-7 -37 -14 -42 -14 -11 0 21 7 38 16 38 1 0 0 -12 -2 -27z m-204 10 c0 -5 -5 -15 -10 -23 -8 -12 -10 -11 -10 8 0 12 5 22 10 22 6 0 10 -3 10 -7z m270 -32 c0 -11 -4 -23 -10 -26 -6 -4 -10 5 -10 19 0 14 5 26 10 26 6 0 10 -9 10 -19z m382 -11 c3 -16 1 -30 -4 -30 -4 0 -8 14 -8 30 0 17 2 30 4 30 2 0 6 -13 8 -30z m-648 -62 c6 -4 -1 -7 -16 -6 -15 1 -25 5 -24 8 2 3 7 14 11 25 l8 20 5 -20 c2 -11 9 -23 16 -27z m654 -15 c-10 -2 -28 -2 -40 0 -13 2 -5 4 17 4 22 1 32 -1 23 -4z"/>
</g>
<g id="layer103" fill="#851230" stroke="none">
<path d="M1232 2714 c-124 -42 -189 -79 -173 -98 5 -6 66 -104 134 -219 l125 -207 -49 0 c-32 0 -49 4 -50 13 0 6 -39 75 -87 152 -95 153 -123 179 -226 215 -50 16 -62 18 -75 7 -78 -64 -149 -134 -201 -197 -35 -41 -64 -76 -65 -78 -2 -2 -30 4 -63 12 -33 9 -63 16 -66 16 -3 0 -6 -90 -6 -200 0 -153 -3 -200 -12 -200 -7 0 -61 13 -120 28 l-108 29 0 -799 c0 -439 3 -798 8 -798 4 0 57 14 117 30 61 17 118 30 128 30 15 0 17 -13 17 -124 l0 -125 54 -15 c182 -53 471 -106 689 -127 184 -17 603 -7 778 20 197 29 366 64 517 107 l52 15 0 125 c0 111 2 124 18 124 9 0 67 -13 127 -30 61 -16 113 -30 118 -30 4 0 7 359 7 798 l0 799 -107 -29 c-60 -15 -114 -28 -120 -28 -10 0 -13 47 -13 200 0 110 -3 200 -6 200 -3 0 -33 -7 -67 -16 l-60 -15 -25 33 c-39 52 -251 258 -265 258 -25 0 -130 -47 -163 -74 -18 -14 -74 -93 -124 -176 l-92 -150 -44 0 -43 0 108 178 c103 168 151 254 151 267 0 8 -120 63 -184 84 -50 17 -50 17 -84 -6 -29 -19 -47 -23 -115 -23 -78 0 -202 23 -221 41 -15 14 -34 11 -114 -17z m-517 -606 c-31 -138 -31 -138 0 -138 20 0 25 -5 25 -26 0 -22 -4 -25 -22 -21 -13 3 -51 11 -86 18 -46 10 -61 17 -57 27 3 7 5 18 5 23 0 4 13 6 29 3 26 -6 30 -3 36 27 20 98 25 109 51 109 20 0 24 -4 19 -22z m1681 -23 c17 -18 34 -42 37 -54 4 -19 1 -21 -32 -21 -40 0 -61 14 -61 42 0 16 -11 23 -32 19 -5 0 -8 10 -8 23 0 47 48 42 96 -9z m-123 -30 c-18 -14 -9 -37 11 -29 9 3 15 -4 18 -20 4 -18 1 -26 -8 -26 -9 0 -14 -11 -14 -29 0 -26 -14 -41 -40 -41 -12 0 -33 135 -25 160 3 11 18 26 33 34 26 14 27 13 34 -12 5 -18 3 -29 -9 -37z m-1360 17 c26 -23 23 -87 -5 -106 -46 -32 -109 -16 -126 33 -26 74 68 127 131 73z m1269 -48 c2 -38 -2 -50 -21 -65 -53 -43 -107 -12 -117 69 -6 51 -6 52 19 52 22 0 26 -5 31 -45 5 -31 12 -45 23 -45 13 0 15 9 11 50 -4 44 -3 49 16 52 27 4 36 -11 38 -68z m-1091 16 c14 -19 17 -35 12 -67 -5 -37 -9 -43 -29 -43 -22 0 -24 4 -24 45 0 59 -25 62 -34 5 -5 -35 -10 -40 -32 -40 -26 0 -26 1 -19 48 4 26 14 55 23 65 23 26 80 19 103 -13z m104 -34 c1 -30 6 -51 13 -54 22 -7 14 -42 -10 -42 -48 0 -67 43 -52 119 5 25 11 31 28 29 18 -3 21 -10 21 -52z m774 38 c-7 -9 -23 -20 -36 -25 -13 -5 -23 -17 -23 -28 0 -22 25 -45 40 -36 17 10 11 25 -10 25 -33 0 -22 19 15 26 49 9 68 0 60 -28 -13 -41 -36 -58 -78 -58 -53 0 -77 22 -77 71 0 47 27 69 83 69 35 0 38 -2 26 -16z m-669 -44 c0 -38 4 -50 15 -50 10 0 15 10 15 29 0 45 10 61 37 61 25 0 25 -2 21 -50 -6 -60 -30 -90 -71 -90 -49 0 -67 24 -67 92 0 55 1 58 25 58 23 0 25 -3 25 -50z m442 3 c2 -37 7 -49 22 -51 16 -4 17 1 11 48 l-7 52 28 -4 c28 -3 29 -6 32 -59 4 -73 -7 -81 -107 -85 -94 -4 -102 2 -109 82 -4 52 -4 54 21 54 27 0 37 -16 37 -61 0 -16 5 -29 10 -29 6 0 10 20 10 43 0 48 5 57 31 57 14 0 19 -10 21 -47z m-232 12 c0 -18 -5 -25 -19 -25 -27 0 -33 -13 -17 -35 23 -32 46 -12 46 40 0 41 2 45 25 45 24 0 25 -3 25 -53 0 -57 -13 -78 -57 -91 -28 -9 -90 19 -98 44 -15 46 24 100 72 100 18 0 23 -6 23 -25z m-1122 -149 c401 -101 916 -150 1337 -127 325 17 639 62 897 127 53 13 104 24 112 24 14 0 16 -71 16 -706 l0 -706 -27 7 c-218 56 -533 112 -773 137 -189 20 -746 17 -938 -5 -200 -23 -409 -59 -600 -103 -84 -19 -154 -34 -155 -32 -1 2 -1 319 1 706 2 627 4 702 18 702 8 0 59 -11 112 -24z m1435 -1336 c14 -17 14 -20 2 -20 -8 0 -15 6 -15 14 0 8 -8 17 -17 19 -14 4 -14 5 -3 6 9 0 23 -8 33 -19z m100 0 c14 -17 14 -20 2 -20 -8 0 -15 6 -15 14 0 8 -8 17 -17 19 -14 4 -14 5 -3 6 9 0 23 -8 33 -19z m-535 -18 c-13 -2 -18 -13 -18 -39 0 -20 -3 -33 -7 -29 -8 8 -10 13 -12 45 0 11 -9 21 -18 23 -10 3 2 4 27 4 25 0 37 -1 28 -4z m100 1 c-12 -3 -19 -15 -20 -36 l-1 -32 -4 32 c-3 19 -11 33 -21 36 -9 2 1 4 23 4 22 0 32 -2 23 -4z m200 0 c-14 -3 -18 -16 -20 -51 -1 -45 -2 -46 -5 -8 -5 48 2 66 24 65 17 -1 17 -2 1 -6z m79 -18 c1 -16 1 -16 -3 -2 -7 22 -44 23 -44 0 0 -9 -3 -14 -6 -10 -4 3 -4 13 0 22 9 23 50 15 53 -10z m-659 -29 c-1 -14 -6 -22 -10 -20 -12 7 -10 44 2 44 5 0 9 -11 8 -24z m-417 -109 c-8 -8 -11 -7 -11 4 0 20 13 34 18 19 3 -7 -1 -17 -7 -23z m1479 7 c0 -8 -4 -12 -10 -9 -5 3 -10 13 -10 21 0 8 5 12 10 9 6 -3 10 -13 10 -21z m-266 10 c9 -3 16 -14 16 -23 -1 -15 -2 -15 -13 0 -7 9 -21 19 -32 22 -15 3 -16 5 -3 6 9 0 23 -2 32 -5z m-1004 -18 c0 -7 -9 -16 -20 -19 -11 -3 -20 -1 -20 4 0 5 7 9 15 9 8 0 15 5 15 10 0 6 2 10 5 10 3 0 5 -6 5 -14z m62 2 c-5 -7 -12 -22 -15 -33 -5 -20 -5 -20 -6 1 0 11 4 25 11 32 16 16 23 15 10 0z m1078 -14 c0 -8 -4 -14 -10 -14 -5 0 -10 9 -10 21 0 11 5 17 10 14 6 -3 10 -13 10 -21z m-1289 -17 c-8 -8 -11 -7 -11 4 0 20 13 34 18 19 3 -7 -1 -17 -7 -23z m799 -8 c0 -16 -4 -29 -10 -29 -5 0 -10 16 -10 36 0 21 4 33 10 29 6 -3 10 -19 10 -36z m305 -16 c-4 -27 -8 -53 -8 -60 0 -7 -3 -10 -7 -8 -7 4 10 115 18 115 2 0 1 -21 -3 -47z m248 0 c-3 -24 -9 -40 -13 -38 -4 3 -3 23 2 45 13 51 18 47 11 -7z m-799 10 c-7 -37 -14 -42 -14 -11 0 21 7 38 16 38 1 0 0 -12 -2 -27z m-204 10 c0 -5 -5 -15 -10 -23 -8 -12 -10 -11 -10 8 0 12 5 22 10 22 6 0 10 -3 10 -7z m270 -32 c0 -11 -4 -23 -10 -26 -6 -4 -10 5 -10 19 0 14 5 26 10 26 6 0 10 -9 10 -19z m382 -11 c3 -16 1 -30 -4 -30 -4 0 -8 14 -8 30 0 17 2 30 4 30 2 0 6 -13 8 -30z m-648 -62 c6 -4 -1 -7 -16 -6 -15 1 -25 5 -24 8 2 3 7 14 11 25 l8 20 5 -20 c2 -11 9 -23 16 -27z m654 -15 c-10 -2 -28 -2 -40 0 -13 2 -5 4 17 4 22 1 32 -1 23 -4z"/>
<path d="M1278 3 c18 -2 45 -2 60 0 15 2 0 4 -33 4 -33 0 -45 -2 -27 -4z"/>
<path d="M1678 3 c17 -2 47 -2 65 0 17 2 3 4 -33 4 -36 0 -50 -2 -32 -4z"/>
</g>
<g id="layer104" fill="#c91c48" stroke="none">
<path d="M1232 2714 c-74 -24 -146 -57 -170 -77 -10 -8 -10 -13 1 -26 11 -13 52 -79 125 -204 7 -12 34 -56 60 -97 l48 -75 89 -7 c50 -3 143 -4 209 0 l118 5 37 56 c19 31 40 64 46 73 5 9 29 48 52 85 50 83 103 179 103 187 0 8 -118 63 -184 86 l-51 17 -34 -26 c-30 -23 -42 -25 -120 -25 -79 1 -166 19 -213 45 -25 13 -34 12 -116 -17z"/>
<path d="M768 2523 c-42 -38 -104 -102 -139 -143 -34 -41 -63 -76 -64 -78 -2 -2 -30 4 -63 12 -33 9 -63 16 -66 16 -3 0 -6 -90 -6 -200 0 -153 -3 -200 -12 -200 -7 0 -61 13 -120 28 l-108 29 0 -799 c0 -439 3 -798 8 -798 4 0 57 14 117 30 61 17 118 30 128 30 15 0 17 -13 17 -124 l0 -125 54 -15 c182 -53 471 -106 689 -127 184 -17 603 -7 778 20 197 29 366 64 517 107 l52 15 0 125 c0 111 2 124 18 124 9 0 67 -13 127 -30 61 -16 113 -30 118 -30 4 0 7 359 7 798 l0 799 -107 -29 c-60 -15 -114 -28 -120 -28 -10 0 -13 47 -13 200 0 110 -3 200 -6 200 -3 0 -33 -7 -67 -16 l-60 -15 -25 33 c-39 52 -251 258 -265 258 -20 0 -117 -42 -151 -65 -27 -18 -131 -167 -170 -242 -16 -33 -16 -33 8 -33 34 0 211 35 323 64 l92 24 25 -33 25 -33 -112 -21 c-329 -62 -777 -82 -1057 -47 -69 8 -145 17 -170 20 -50 6 -262 44 -266 49 -1 1 10 17 24 35 l27 33 95 -26 c103 -27 289 -65 321 -65 19 0 18 4 -12 56 -101 178 -150 228 -255 264 -31 11 -58 20 -58 20 -1 0 -36 -30 -78 -67z m-53 -415 c-31 -138 -31 -138 0 -138 20 0 25 -5 25 -26 0 -22 -4 -25 -22 -21 -13 3 -51 11 -86 18 -46 10 -61 17 -57 27 3 7 5 18 5 23 0 4 13 6 29 3 26 -6 30 -3 36 27 20 98 25 109 51 109 20 0 24 -4 19 -22z m1681 -23 c17 -18 34 -42 37 -54 4 -19 1 -21 -32 -21 -40 0 -61 14 -61 42 0 16 -11 23 -32 19 -5 0 -8 10 -8 23 0 47 48 42 96 -9z m-123 -30 c-18 -14 -9 -37 11 -29 9 3 15 -4 18 -20 4 -18 1 -26 -8 -26 -9 0 -14 -11 -14 -29 0 -26 -14 -41 -40 -41 -12 0 -33 135 -25 160 3 11 18 26 33 34 26 14 27 13 34 -12 5 -18 3 -29 -9 -37z m-1360 17 c26 -23 23 -87 -5 -106 -46 -32 -109 -16 -126 33 -26 74 68 127 131 73z m1269 -48 c2 -38 -2 -50 -21 -65 -53 -43 -107 -12 -117 69 -6 51 -6 52 19 52 22 0 26 -5 31 -45 5 -31 12 -45 23 -45 13 0 15 9 11 50 -4 44 -3 49 16 52 27 4 36 -11 38 -68z m-1091 16 c14 -19 17 -35 12 -67 -5 -37 -9 -43 -29 -43 -22 0 -24 4 -24 45 0 59 -25 62 -34 5 -5 -35 -10 -40 -32 -40 -26 0 -26 1 -19 48 4 26 14 55 23 65 23 26 80 19 103 -13z m104 -34 c1 -30 6 -51 13 -54 22 -7 14 -42 -10 -42 -48 0 -67 43 -52 119 5 25 11 31 28 29 18 -3 21 -10 21 -52z m774 38 c-7 -9 -23 -20 -36 -25 -13 -5 -23 -17 -23 -28 0 -22 25 -45 40 -36 17 10 11 25 -10 25 -33 0 -22 19 15 26 49 9 68 0 60 -28 -13 -41 -36 -58 -78 -58 -53 0 -77 22 -77 71 0 47 27 69 83 69 35 0 38 -2 26 -16z m-669 -44 c0 -38 4 -50 15 -50 10 0 15 10 15 29 0 45 10 61 37 61 25 0 25 -2 21 -50 -6 -60 -30 -90 -71 -90 -49 0 -67 24 -67 92 0 55 1 58 25 58 23 0 25 -3 25 -50z m442 3 c2 -37 7 -49 22 -51 16 -4 17 1 11 48 l-7 52 28 -4 c28 -3 29 -6 32 -59 4 -73 -7 -81 -107 -85 -94 -4 -102 2 -109 82 -4 52 -4 54 21 54 27 0 37 -16 37 -61 0 -16 5 -29 10 -29 6 0 10 20 10 43 0 48 5 57 31 57 14 0 19 -10 21 -47z m-232 12 c0 -18 -5 -25 -19 -25 -27 0 -33 -13 -17 -35 23 -32 46 -12 46 40 0 41 2 45 25 45 24 0 25 -3 25 -53 0 -57 -13 -78 -57 -91 -28 -9 -90 19 -98 44 -15 46 24 100 72 100 18 0 23 -6 23 -25z m-1122 -149 c401 -101 916 -150 1337 -127 325 17 639 62 897 127 53 13 104 24 112 24 14 0 16 -71 16 -706 l0 -706 -27 7 c-218 56 -533 112 -773 137 -189 20 -746 17 -938 -5 -200 -23 -409 -59 -600 -103 -84 -19 -154 -34 -155 -32 -1 2 -1 319 1 706 2 627 4 702 18 702 8 0 59 -11 112 -24z m1212 -1318 c49 -81 1 -166 -72 -127 -14 8 -23 8 -31 0 -14 -14 -54 -14 -62 -1 -9 14 -25 2 -19 -13 7 -20 62 -49 69 -37 7 11 94 8 113 -4 22 -14 14 -85 -13 -111 -28 -29 -51 -31 -82 -10 -19 13 -22 13 -27 0 -4 -12 -20 -14 -76 -12 -38 2 -73 7 -77 11 -5 4 -1 6 7 4 11 -2 16 7 18 30 4 43 22 41 22 -2 l0 -34 50 0 50 -1 0 43 c0 57 -20 73 -90 72 -47 -1 -56 -4 -67 -26 -8 -14 -12 -40 -10 -57 2 -19 -1 -29 -6 -24 -5 5 -21 4 -38 -3 -25 -9 -36 -8 -60 6 -16 9 -29 14 -29 10 0 -4 -9 -18 -20 -32 -19 -24 -19 -24 -13 -2 3 12 9 25 14 28 12 7 12 44 0 44 -5 0 -3 14 6 31 8 16 12 33 9 36 -12 12 -57 -17 -66 -43 -14 -36 -12 -101 3 -107 6 -3 -7 -6 -30 -6 -23 -1 -44 3 -47 8 -3 4 5 6 19 4 21 -5 24 -1 31 43 9 61 -4 96 -39 108 -66 24 -115 -51 -61 -93 15 -11 22 -21 15 -21 -6 0 -19 8 -29 18 -16 16 -22 17 -37 5 -25 -17 -65 -17 -91 2 -19 13 -22 12 -32 -10 -7 -14 -17 -25 -23 -25 -8 0 -6 7 4 18 10 10 17 26 17 35 0 22 6 21 30 -3 23 -23 68 -26 92 -7 9 6 19 31 23 55 l7 42 -53 0 c-35 0 -59 -6 -71 -17 -17 -15 -18 -15 -18 5 0 12 -2 22 -4 22 -2 0 -11 3 -20 6 -11 4 -16 -4 -21 -33 -11 -69 -26 -84 -20 -20 5 55 4 57 -19 57 -21 0 -24 -6 -30 -50 -4 -27 -11 -50 -16 -50 -9 0 -7 24 6 88 4 18 0 22 -20 22 -21 0 -25 -6 -34 -57 -7 -40 -7 -62 0 -71 6 -7 8 -15 5 -18 -14 -14 -24 35 -16 81 4 28 8 55 8 62 1 17 39 36 53 27 6 -4 23 -8 37 -9 92 -6 190 -18 215 -26 16 -5 45 -6 64 -3 l34 7 -5 48 c-5 42 -3 50 14 60 12 6 32 8 45 5 13 -4 33 -2 44 4 16 8 26 7 42 -4 20 -14 24 -14 46 0 21 14 30 14 63 4 30 -10 56 -11 113 -3 40 6 86 8 100 6 20 -4 31 1 47 21 27 34 35 33 59 -6z m280 -1 l33 16 34 -36 c36 -40 42 -76 17 -101 -18 -19 -65 -21 -82 -4 -9 9 -15 9 -24 0 -14 -14 -64 -16 -73 -3 -3 6 9 8 29 4 28 -4 36 -1 46 17 l12 22 14 -21 c27 -38 84 -22 84 24 0 26 -18 45 -42 45 -10 0 -18 7 -18 15 0 8 -7 15 -15 15 -9 0 -15 -10 -15 -26 0 -21 -3 -25 -17 -19 -10 4 -26 10 -35 12 -10 3 -18 12 -18 20 0 8 -7 13 -17 11 -15 -3 -18 -14 -18 -58 -1 -57 -17 -100 -37 -100 -9 0 -9 -3 0 -12 7 -7 12 -25 12 -41 0 -16 7 -35 15 -43 13 -14 15 -10 15 35 0 41 4 52 21 61 15 8 24 8 34 0 8 -6 16 -7 19 -2 8 13 77 24 171 28 44 1 100 7 125 12 26 6 52 7 61 1 20 -10 29 -3 29 25 1 29 48 62 69 49 50 -31 74 -151 37 -179 -29 -21 -42 -17 -15 5 48 39 12 151 -48 151 -27 0 -41 -26 -25 -42 8 -8 7 -14 -5 -23 -23 -17 -20 -66 7 -87 12 -10 18 -18 12 -18 -6 0 -17 7 -25 15 -8 8 -17 11 -21 8 -3 -4 -6 5 -6 20 0 38 -10 57 -31 57 -15 0 -19 -7 -19 -36 0 -21 -4 -33 -10 -29 -5 3 -10 20 -10 36 0 26 -4 30 -22 27 -20 -3 -22 -9 -24 -83 -2 -99 -2 -95 -15 -95 -8 0 -7 5 1 15 10 11 10 19 2 27 -6 6 -8 17 -5 24 3 8 2 34 -1 59 -6 36 -11 45 -27 45 -18 0 -20 -6 -18 -55 1 -31 6 -58 10 -61 5 -2 5 -12 2 -20 -3 -9 0 -20 8 -26 12 -8 11 -9 -1 -5 -8 2 -15 14 -15 27 0 25 -19 38 -30 21 -3 -6 -12 -11 -18 -11 -7 0 -4 5 6 11 12 7 17 23 17 60 l0 49 -47 -2 c-46 -3 -48 -4 -51 -36 -4 -37 -22 -34 -22 4 0 17 -5 24 -20 24 -17 0 -20 -7 -20 -43 0 -24 6 -49 13 -57 10 -12 9 -12 -5 -1 -16 12 -18 10 -18 -14 0 -57 -13 -13 -14 47 -1 57 -3 63 -23 66 -21 3 -23 0 -23 -52 0 -30 4 -57 9 -60 5 -3 7 -15 4 -25 -6 -24 13 -36 32 -21 9 7 15 8 15 2 0 -16 -21 -19 -90 -12 -49 5 -55 7 -24 8 22 1 43 5 47 8 11 11 -5 34 -24 34 -16 0 -19 8 -19 55 0 53 -1 55 -26 55 -25 0 -26 -2 -22 -55 3 -48 1 -55 -16 -55 -14 0 -17 -6 -14 -25 3 -13 1 -22 -3 -19 -15 9 -10 44 6 50 11 5 15 21 15 60 0 36 4 54 12 54 7 0 2 7 -10 16 -18 12 -22 25 -22 71 0 63 15 82 66 83 16 0 39 6 49 14 17 12 23 12 46 -5 25 -18 29 -18 59 -2z m-50 -82 c0 -8 -4 -15 -10 -15 -5 0 -10 7 -10 15 0 8 5 15 10 15 6 0 10 -7 10 -15z m100 0 c0 -8 -4 -15 -10 -15 -5 0 -10 7 -10 15 0 8 5 15 10 15 6 0 10 -7 10 -15z m380 -100 c0 -8 -7 -15 -15 -15 -26 0 -18 20 13 29 1 1 2 -6 2 -14z m-1418 -37 c-11 -11 -32 -3 -32 13 0 5 7 9 15 9 8 0 16 6 16 13 1 6 3 4 6 -7 3 -10 0 -23 -5 -28z m138 -8 c0 -5 -7 -10 -15 -10 -8 0 -15 5 -15 10 0 6 7 10 15 10 8 0 15 -4 15 -10z m1125 -38 c-6 -7 -45 9 -45 18 0 4 11 3 24 -3 14 -7 23 -13 21 -15z m-1418 -28 c-1 -1 -20 1 -42 4 -35 5 -37 6 -15 12 14 3 33 2 42 -4 9 -6 16 -11 15 -12z"/>
<path d="M1540 535 c0 -8 6 -15 13 -16 6 0 2 -5 -10 -11 -13 -6 -23 -17 -23 -25 0 -7 -4 -13 -10 -13 -5 0 -10 9 -10 20 0 34 -28 23 -33 -12 l-4 -33 -1 33 c-2 26 -6 33 -19 30 -22 -4 -28 -39 -13 -67 14 -28 60 -28 67 -1 3 11 8 20 12 20 3 0 12 -9 19 -20 14 -22 51 -27 70 -8 17 17 15 84 -4 102 -20 20 -54 21 -54 1z"/>
<path d="M1030 495 c0 -8 5 -15 11 -15 7 0 8 -11 4 -30 -8 -35 7 -60 35 -60 10 0 20 9 23 19 3 14 1 18 -9 14 -11 -4 -13 2 -8 26 7 35 -8 61 -37 61 -11 0 -19 -7 -19 -15z"/>
<path d="M1314 495 c-3 -8 -2 -27 3 -42 8 -24 16 -28 49 -30 l40 -3 -1 43 c0 32 -4 42 -17 45 -15 3 -18 -4 -18 -33 0 -22 -4 -34 -10 -30 -5 3 -10 19 -10 36 0 31 -26 42 -36 14z"/>
<path d="M1290 425 c-15 -18 -43 -19 -71 -4 -15 7 -24 7 -35 -2 -8 -6 -27 -9 -44 -5 -25 5 -30 2 -30 -14 0 -14 -7 -20 -22 -21 -13 0 -17 -3 -10 -6 8 -3 24 0 37 7 15 8 29 9 41 2 13 -6 29 -5 49 3 24 11 35 10 61 -2 27 -14 36 -14 63 -2 33 15 41 29 17 29 -8 0 -21 7 -29 15 -13 13 -16 13 -27 0z"/>
<path d="M1186 338 c-21 -30 -20 -44 4 -68 40 -40 100 -16 100 40 0 50 -75 70 -104 28z m56 -33 c0 -5 -5 -11 -11 -13 -6 -2 -11 4 -11 13 0 9 5 15 11 13 6 -2 11 -8 11 -13z"/>
<path d="M1490 317 c0 -68 48 -99 89 -58 27 27 22 95 -8 99 -18 3 -21 -2 -21 -32 0 -20 -4 -36 -10 -36 -5 0 -10 16 -10 35 0 28 -4 35 -20 35 -17 0 -20 -7 -20 -43z"/>
</g>
<g id="layer105" fill="#a6aaad" stroke="none">
<path d="M270 2979 c-6 -11 -9 -25 -6 -32 2 -7 5 -5 5 5 1 9 8 24 17 32 8 9 11 16 5 16 -6 0 -15 -9 -21 -21z"/>
<path d="M455 2935 c17 -8 37 -14 45 -14 8 0 -1 7 -20 14 -46 18 -64 17 -25 0z"/>
<path d="M2714 2871 c0 -45 -5 -75 -15 -87 -7 -9 -45 -32 -84 -51 -55 -26 -63 -32 -36 -28 19 3 60 18 90 33 51 24 57 31 65 69 9 42 1 133 -12 133 -4 0 -7 -31 -8 -69z"/>
<path d="M280 2841 c0 -59 8 -70 66 -97 53 -24 138 -46 404 -104 82 -18 164 -42 189 -56 51 -28 58 -30 40 -8 -28 34 -118 67 -271 99 -224 48 -356 86 -384 112 -17 15 -24 33 -24 58 0 19 -4 35 -10 35 -5 0 -10 -18 -10 -39z"/>
<path d="M1256 2842 c6 -4 13 -13 15 -21 4 -10 8 -9 19 5 9 11 10 15 3 10 -7 -4 -13 -2 -13 3 0 6 -8 11 -17 11 -11 0 -14 -3 -7 -8z"/>
<path d="M1650 2797 c0 -2 14 -13 30 -25 17 -13 30 -19 30 -14 0 4 -13 16 -30 25 -16 10 -30 16 -30 14z"/>
<path d="M1232 2715 c-79 -27 -167 -69 -176 -84 -3 -5 1 -14 9 -21 12 -10 32 -5 104 24 49 20 118 44 155 53 64 17 87 33 47 33 -11 0 -23 5 -26 10 -9 15 -33 12 -113 -15z"/>
<path d="M1692 2720 c-12 -10 -22 -20 -22 -23 0 -2 19 -9 43 -16 23 -7 82 -29 131 -48 72 -29 90 -33 97 -22 5 8 9 18 9 22 0 9 -111 61 -184 87 -50 17 -53 17 -74 0z"/>
<path d="M395 2690 c11 -5 27 -9 35 -9 9 0 8 4 -5 9 -11 5 -27 9 -35 9 -9 0 -8 -4 5 -9z"/>
<path d="M756 2583 l-20 -27 27 20 c26 18 35 34 20 34 -5 0 -17 -13 -27 -27z"/>
<path d="M2220 2607 c0 -2 15 -16 33 -33 l32 -29 -29 33 c-28 30 -36 37 -36 29z"/>
<path d="M768 2523 c-42 -38 -104 -102 -139 -143 -34 -41 -63 -76 -64 -78 -2 -2 -30 4 -63 12 -33 9 -63 16 -66 16 -3 0 -6 -90 -6 -200 0 -153 -3 -200 -12 -200 -7 0 -61 13 -120 28 l-108 29 0 -799 c0 -439 3 -798 8 -798 4 0 57 14 117 30 61 17 118 30 128 30 15 0 17 -13 17 -124 l0 -125 54 -15 c182 -53 471 -106 689 -127 184 -17 603 -7 778 20 197 29 366 64 517 107 l52 15 0 125 c0 111 2 124 18 124 9 0 67 -13 127 -30 61 -16 113 -30 118 -30 4 0 7 359 7 798 l0 799 -107 -29 c-60 -15 -114 -28 -120 -28 -10 0 -13 47 -13 200 0 110 -3 200 -6 200 -3 0 -33 -7 -67 -16 l-60 -15 -25 33 c-37 49 -250 258 -264 258 -18 0 -128 -44 -128 -51 0 -3 24 -22 53 -42 73 -51 234 -214 222 -226 -13 -12 -301 -57 -465 -72 -182 -16 -537 -14 -723 6 -199 21 -409 57 -414 71 -5 15 155 173 221 219 31 21 53 41 51 46 -3 4 -29 15 -58 25 -28 9 -57 19 -62 21 -6 2 -45 -27 -87 -64z m-53 -415 c-31 -138 -31 -138 0 -138 20 0 25 -5 25 -26 0 -22 -4 -25 -22 -21 -13 3 -51 11 -86 18 -46 10 -61 17 -57 27 3 7 5 18 5 23 0 4 13 6 29 3 26 -6 30 -3 36 27 20 98 25 109 51 109 20 0 24 -4 19 -22z m1681 -23 c17 -18 34 -42 37 -54 4 -19 1 -21 -32 -21 -40 0 -61 14 -61 42 0 16 -11 23 -32 19 -5 0 -8 10 -8 23 0 47 48 42 96 -9z m-123 -30 c-18 -14 -9 -37 11 -29 9 3 15 -4 18 -20 4 -18 1 -26 -8 -26 -9 0 -14 -11 -14 -29 0 -26 -14 -41 -40 -41 -12 0 -33 135 -25 160 3 11 18 26 33 34 26 14 27 13 34 -12 5 -18 3 -29 -9 -37z m-1360 17 c26 -23 23 -87 -5 -106 -46 -32 -109 -16 -126 33 -26 74 68 127 131 73z m1269 -48 c2 -38 -2 -50 -21 -65 -53 -43 -107 -12 -117 69 -6 51 -6 52 19 52 22 0 26 -5 31 -45 5 -31 12 -45 23 -45 13 0 15 9 11 50 -4 44 -3 49 16 52 27 4 36 -11 38 -68z m-1091 16 c14 -19 17 -35 12 -67 -5 -37 -9 -43 -29 -43 -22 0 -24 4 -24 45 0 59 -25 62 -34 5 -5 -35 -10 -40 -32 -40 -26 0 -26 1 -19 48 4 26 14 55 23 65 23 26 80 19 103 -13z m104 -34 c1 -30 6 -51 13 -54 22 -7 14 -42 -10 -42 -48 0 -67 43 -52 119 5 25 11 31 28 29 18 -3 21 -10 21 -52z m774 38 c-7 -9 -23 -20 -36 -25 -13 -5 -23 -17 -23 -28 0 -22 25 -45 40 -36 17 10 11 25 -10 25 -33 0 -22 19 15 26 49 9 68 0 60 -28 -13 -41 -36 -58 -78 -58 -53 0 -77 22 -77 71 0 47 27 69 83 69 35 0 38 -2 26 -16z m-669 -44 c0 -38 4 -50 15 -50 10 0 15 10 15 29 0 45 10 61 37 61 25 0 25 -2 21 -50 -6 -60 -30 -90 -71 -90 -49 0 -67 24 -67 92 0 55 1 58 25 58 23 0 25 -3 25 -50z m442 3 c2 -37 7 -49 22 -51 16 -4 17 1 11 48 l-7 52 28 -4 c28 -3 29 -6 32 -59 4 -73 -7 -81 -107 -85 -94 -4 -102 2 -109 82 -4 52 -4 54 21 54 27 0 37 -16 37 -61 0 -16 5 -29 10 -29 6 0 10 20 10 43 0 48 5 57 31 57 14 0 19 -10 21 -47z m-232 12 c0 -18 -5 -25 -19 -25 -27 0 -33 -13 -17 -35 23 -32 46 -12 46 40 0 41 2 45 25 45 24 0 25 -3 25 -53 0 -57 -13 -78 -57 -91 -28 -9 -90 19 -98 44 -15 46 24 100 72 100 18 0 23 -6 23 -25z m-1122 -149 c401 -101 916 -150 1337 -127 325 17 639 62 897 127 53 13 104 24 112 24 14 0 16 -71 16 -706 l0 -706 -27 7 c-218 56 -533 112 -773 137 -189 20 -746 17 -938 -5 -200 -23 -409 -59 -600 -103 -84 -19 -154 -34 -155 -32 -1 2 -1 319 1 706 2 627 4 702 18 702 8 0 59 -11 112 -24z m1562 -1311 c182 -29 303 -43 316 -38 7 3 35 -2 61 -10 26 -8 60 -18 76 -21 l27 -6 0 -94 0 -93 -57 -16 c-84 -24 -288 -62 -438 -84 -103 -14 -192 -18 -430 -18 -304 0 -421 9 -635 51 -106 21 -106 21 -86 42 9 10 16 26 16 35 0 23 13 21 35 -3 22 -25 67 -26 88 -2 8 9 18 34 22 55 l7 37 -53 0 c-35 0 -59 -6 -71 -17 -17 -15 -18 -15 -18 5 0 12 -2 22 -4 22 -2 0 -11 3 -20 6 -11 4 -16 -4 -21 -33 -11 -69 -26 -84 -20 -20 5 55 4 57 -19 57 -21 0 -24 -6 -30 -50 -4 -27 -11 -50 -16 -50 -9 0 -7 24 6 88 4 18 0 22 -20 22 -22 0 -26 -6 -32 -45 -3 -25 -4 -59 -1 -74 6 -28 6 -29 -23 -18 l-30 11 0 93 c0 105 -13 94 130 117 288 48 364 56 620 65 271 9 503 4 620 -14z m-1058 -227 c-11 -11 -32 -3 -32 13 0 5 7 9 15 9 8 0 16 6 16 13 1 6 3 4 6 -7 3 -10 0 -23 -5 -28z m-155 -74 c-1 -1 -20 1 -42 4 -35 5 -37 6 -15 12 14 3 33 2 42 -4 9 -6 16 -11 15 -12z"/>
<path d="M834 2035 c-4 -9 -2 -21 4 -27 15 -15 44 -1 40 19 -4 23 -36 29 -44 8z"/>
<path d="M370 1551 l0 -211 45 0 45 0 0 78 0 78 64 -7 c35 -3 68 -9 75 -13 6 -4 11 -36 11 -77 l0 -69 45 0 45 0 0 179 c0 99 -3 182 -8 185 -4 2 -24 7 -45 11 l-37 7 0 -76 c0 -86 6 -82 -97 -70 l-53 7 0 82 c0 82 0 83 -27 89 -16 4 -36 9 -45 12 -17 5 -18 -9 -18 -205z"/>
<path d="M2445 1721 c-29 -6 -30 -7 -35 -81 -6 -75 -34 -146 -106 -261 -13 -20 -20 -40 -17 -43 4 -3 26 -6 49 -6 l43 0 38 80 c20 44 40 80 43 79 3 0 21 -32 41 -72 39 -76 57 -87 116 -72 l24 6 -19 32 c-11 18 -32 55 -47 82 -76 138 -76 138 -74 200 3 65 0 68 -56 56z"/>
<path d="M2105 1673 c-66 -7 -124 -15 -130 -17 -6 -2 -9 -65 -7 -170 l3 -166 110 0 c121 0 140 6 162 49 l14 29 -98 -5 -99 -6 0 32 c0 37 4 39 90 43 l65 3 3 38 c3 33 1 38 -15 33 -10 -3 -45 -6 -78 -7 l-60 -3 -3 36 -3 36 58 7 c128 13 138 17 141 53 4 37 18 36 -153 15z"/>
<path d="M798 1665 l-28 -16 0 -138 c0 -187 -4 -182 161 -189 165 -6 164 -7 164 163 0 115 -2 125 -23 148 -18 19 -37 26 -90 31 -37 4 -87 9 -112 11 -30 4 -54 0 -72 -10z m180 -71 c21 -4 22 -9 22 -105 l0 -100 -67 3 -68 3 -3 99 c-2 60 1 102 7 106 11 6 66 3 109 -6z"/>
<path d="M1822 1643 c-6 -2 -28 -29 -47 -58 -53 -79 -61 -84 -91 -53 -16 15 -28 41 -31 66 -6 41 -7 42 -44 42 -49 0 -51 -5 -47 -185 l3 -140 45 -3 46 -3 -4 71 c-3 50 -1 70 8 70 6 0 42 -29 79 -65 66 -63 69 -65 120 -65 l53 0 -68 64 c-65 60 -68 65 -53 82 9 11 41 56 73 102 l57 82 -43 -1 c-24 0 -49 -3 -56 -6z"/>
<path d="M1187 1622 c-14 -15 -17 -41 -17 -144 0 -164 -1 -162 154 -163 138 0 166 12 166 76 l0 40 -47 -3 c-29 -2 -48 -8 -49 -15 -1 -7 -2 -17 -3 -23 0 -6 -30 -10 -66 -10 l-65 0 0 100 0 101 68 -3 c65 -3 67 -4 70 -30 3 -26 7 -28 48 -28 44 0 44 0 44 35 0 25 -8 44 -25 60 -23 24 -30 25 -143 25 -102 0 -121 -3 -135 -18z"/>
<path d="M370 924 l0 -306 23 5 c12 3 90 18 172 32 187 32 208 39 240 76 23 29 25 38 25 139 l0 108 -32 27 c-31 26 -33 26 -162 24 l-131 -2 -3 101 -3 102 -64 0 -65 0 0 -306z m318 -3 c9 -5 12 -27 10 -72 l-3 -64 -112 -16 c-62 -8 -113 -12 -113 -8 0 4 7 9 15 13 11 4 15 22 15 70 l0 65 33 6 c17 3 55 6 82 8 28 2 52 4 55 5 3 1 11 -2 18 -7z"/>
<path d="M2182 1222 c-9 -7 -12 -67 -10 -267 l3 -259 188 -28 c184 -28 189 -29 225 -11 22 11 39 28 43 43 4 14 7 114 8 223 2 304 -1 307 -269 307 -96 0 -181 -4 -188 -8z m312 -118 c13 -13 16 -42 16 -167 0 -84 -4 -158 -8 -165 -7 -9 -31 -9 -122 3 -63 8 -119 15 -124 16 -6 1 0 4 14 8 l25 7 3 157 3 157 89 0 c67 0 92 -4 104 -16z"/>
<path d="M990 1213 c-8 -3 -27 -17 -42 -31 l-28 -26 0 -189 0 -189 30 -30 31 -31 152 7 c178 9 219 17 247 53 19 25 20 37 18 211 l-3 185 -28 21 c-26 19 -43 21 -195 23 -92 1 -174 -1 -182 -4z m264 -89 c14 -5 16 -28 16 -145 0 -165 3 -161 -128 -157 l-87 3 -3 137 c-3 168 -3 168 108 168 43 0 85 -3 94 -6z"/>
<path d="M1532 979 l3 -242 67 1 c37 0 71 3 76 6 6 3 58 71 118 150 59 80 112 143 116 140 5 -3 8 -73 7 -156 0 -82 1 -151 3 -152 1 -2 29 -6 61 -10 l57 -6 0 255 0 255 -69 0 c-81 0 -71 8 -216 -191 l-90 -124 -3 158 -3 157 -64 0 -65 0 2 -241z"/>
<path d="M1540 535 c0 -8 6 -15 13 -16 6 0 2 -5 -10 -11 -13 -6 -23 -17 -23 -25 0 -7 -4 -13 -10 -13 -5 0 -10 9 -10 20 0 34 -28 23 -33 -12 l-4 -33 -1 33 c-2 26 -6 33 -19 30 -37 -7 -22 -88 17 -88 10 0 26 10 34 22 l16 22 16 -22 c17 -24 53 -29 72 -10 19 19 15 82 -6 101 -23 21 -52 22 -52 2z"/>
<path d="M1777 533 c-13 -12 -7 -68 9 -91 19 -27 45 -28 69 -2 l18 20 14 -20 c26 -37 83 -20 83 25 0 26 -18 45 -42 45 -10 0 -18 7 -18 15 0 8 -7 15 -15 15 -9 0 -15 -10 -15 -26 0 -21 -3 -25 -17 -19 -10 4 -26 10 -35 12 -10 3 -18 12 -18 19 0 14 -22 19 -33 7z m53 -68 c0 -8 -4 -15 -10 -15 -5 0 -10 7 -10 15 0 8 5 15 10 15 6 0 10 -7 10 -15z m100 0 c0 -8 -4 -15 -10 -15 -5 0 -10 7 -10 15 0 8 5 15 10 15 6 0 10 -7 10 -15z"/>
<path d="M1030 495 c0 -8 5 -15 11 -15 7 0 8 -11 4 -30 -8 -35 7 -60 36 -60 11 0 19 7 19 15 0 8 -4 15 -10 15 -5 0 -7 13 -4 30 4 18 1 36 -6 45 -16 19 -50 19 -50 0z"/>
<path d="M1122 498 c-15 -15 -15 -51 0 -66 18 -18 55 -14 70 7 14 20 14 20 26 0 23 -37 82 -18 82 26 0 44 -59 63 -82 26 -12 -20 -12 -20 -26 0 -15 21 -52 25 -70 7z m61 -28 c16 0 -14 -20 -30 -20 -7 0 -13 7 -13 16 0 11 5 14 16 10 9 -3 21 -6 27 -6z"/>
<path d="M1314 495 c-3 -8 -2 -27 3 -42 8 -23 16 -28 46 -30 34 -2 37 0 43 32 7 38 0 55 -22 55 -9 0 -14 -11 -14 -36 0 -21 -4 -33 -10 -29 -5 3 -10 19 -10 36 0 31 -26 42 -36 14z"/>
<path d="M1670 462 c0 -52 12 -72 45 -72 33 0 45 20 45 72 0 41 -3 48 -19 48 -11 0 -22 -8 -24 -17 -4 -17 -5 -17 -6 0 -1 10 -9 17 -21 17 -17 0 -20 -7 -20 -48z"/>
<path d="M2253 454 c-3 -8 -1 -20 5 -26 8 -8 7 -14 -5 -23 -19 -14 -21 -59 -3 -80 15 -18 71 -20 88 -3 7 7 12 33 12 58 0 36 -5 52 -23 68 -27 26 -65 29 -74 6z m57 -89 c0 -8 -7 -15 -15 -15 -26 0 -18 20 13 29 1 1 2 -6 2 -14z"/>
<path d="M1372 398 c6 -18 28 -21 28 -4 0 9 -7 16 -16 16 -9 0 -14 -5 -12 -12z"/>
<path d="M2107 394 c-8 -8 4 -76 16 -91 12 -16 69 -17 85 -1 26 26 11 98 -19 98 -15 0 -19 -7 -19 -36 0 -21 -4 -33 -10 -29 -5 3 -10 19 -10 36 0 21 -5 29 -18 29 -10 0 -21 -3 -25 -6z"/>
<path d="M2041 335 c1 -31 6 -58 10 -61 5 -2 6 -11 3 -18 -3 -7 1 -18 9 -25 19 -15 46 14 29 31 -6 6 -8 17 -5 24 3 8 2 34 -1 59 -6 36 -11 45 -27 45 -18 0 -20 -6 -18 -55z"/>
<path d="M972 364 c-31 -21 -26 -61 11 -88 24 -18 29 -19 37 -6 7 11 10 7 10 -17 0 -26 4 -33 19 -33 34 0 43 108 11 140 -24 24 -57 26 -88 4z m58 -44 c0 -5 -7 -10 -15 -10 -8 0 -15 5 -15 10 0 6 7 10 15 10 8 0 15 -4 15 -10z"/>
<path d="M1925 372 c-3 -3 -5 -18 -5 -34 0 -17 -4 -27 -10 -23 -5 3 -10 17 -10 31 0 17 -5 24 -20 24 -17 0 -20 -7 -20 -44 0 -61 14 -70 92 -59 l63 8 3 52 3 52 -45 -1 c-25 0 -48 -3 -51 -6z"/>
<path d="M1120 352 c-18 -14 -24 -32 -28 -75 -4 -52 -3 -57 16 -57 21 0 52 39 52 65 0 8 -5 15 -11 15 -8 0 -8 4 -1 13 5 6 13 22 16 35 9 28 -12 30 -44 4z"/>
<path d="M1797 364 c-10 -11 -9 -102 2 -108 5 -3 7 -15 4 -26 -4 -15 0 -20 15 -20 19 0 20 6 19 77 -2 61 -5 78 -17 81 -9 1 -19 0 -23 -4z"/>
<path d="M1186 338 c-21 -30 -20 -44 4 -68 40 -40 100 -14 100 43 0 48 -76 66 -104 25z m56 -33 c0 -5 -5 -11 -11 -13 -6 -2 -11 4 -11 13 0 9 5 15 11 13 6 -2 11 -8 11 -13z"/>
<path d="M1321 346 c-14 -17 -25 -71 -18 -90 4 -9 14 -12 26 -9 15 4 21 13 21 34 0 16 5 29 10 29 6 0 10 -15 10 -34 l0 -34 50 0 50 -1 0 43 c0 28 -6 48 -16 57 -22 18 -119 22 -133 5z"/>
<path d="M1490 317 c0 -100 100 -106 103 -7 1 39 -1 45 -21 48 -19 3 -22 -1 -22 -32 0 -20 -4 -36 -10 -36 -5 0 -10 16 -10 35 0 28 -4 35 -20 35 -17 0 -20 -7 -20 -43z"/>
<path d="M1692 305 c3 -47 0 -55 -14 -55 -11 0 -18 -8 -18 -20 0 -18 7 -20 58 -20 32 0 61 3 65 6 11 11 -5 34 -24 34 -16 0 -19 8 -19 55 0 53 -1 55 -26 55 -25 0 -26 -2 -22 -55z"/>
<path d="M1723 3 c9 -2 25 -2 35 0 9 3 1 5 -18 5 -19 0 -27 -2 -17 -5z"/>
</g>
<g id="layer106" fill="#fefefe" stroke="none">
<path d="M2721 2870 c-4 -79 -10 -89 -82 -127 -67 -35 -49 -35 34 -1 54 23 60 36 54 123 l-3 60 -3 -55z"/>
<path d="M283 2825 c4 -23 15 -47 28 -57 31 -26 150 -61 366 -107 106 -23 213 -50 238 -61 64 -27 56 -14 -10 16 -30 14 -125 40 -212 58 -187 40 -305 71 -353 94 -27 13 -36 24 -38 47 -2 17 -8 35 -14 40 -7 7 -9 -2 -5 -30z"/>
<path d="M1225 2708 c-84 -31 -165 -70 -165 -78 0 -3 4 -11 8 -17 6 -10 28 -4 91 22 45 19 111 43 147 52 35 9 64 20 64 24 0 6 -60 32 -64 28 -1 -1 -37 -14 -81 -31z"/>
<path d="M1696 2711 c-16 -18 -15 -19 27 -30 25 -6 82 -27 127 -46 65 -28 85 -33 92 -23 4 7 8 16 8 19 0 10 -210 99 -235 99 -1 0 -10 -8 -19 -19z"/>
<path d="M883 2526 c-92 -71 -128 -104 -184 -171 -56 -65 -58 -70 -38 -77 18 -7 32 3 88 64 36 39 98 97 136 127 78 62 85 72 58 82 -13 5 -32 -3 -60 -25z"/>
<path d="M2050 2550 c-17 -10 -21 -6 72 -79 37 -29 99 -86 136 -127 59 -64 72 -73 91 -66 21 7 19 11 -36 74 -78 89 -215 208 -240 208 -4 0 -15 -5 -23 -10z"/>
<path d="M664 2498 l-29 -33 33 29 c17 17 32 31 32 33 0 8 -8 1 -36 -29z"/>
<path d="M500 2077 l0 -165 48 -11 c368 -86 987 -120 1407 -77 165 17 410 54 508 77 l47 11 0 165 0 165 -27 -7 c-621 -156 -1335 -156 -1955 0 l-28 7 0 -165z m220 39 c-1 -6 -7 -39 -14 -74 l-14 -63 28 -5 c22 -5 26 -10 22 -30 -5 -28 -12 -29 -103 -8 -62 14 -70 18 -67 37 2 17 10 22 33 22 28 1 30 4 43 60 7 33 14 65 16 71 6 15 56 6 56 -10z m1660 -6 c11 -11 20 -24 20 -30 0 -5 6 -10 14 -10 19 0 31 -51 14 -61 -31 -20 -71 -2 -93 42 -9 16 -20 27 -25 24 -6 -4 -10 0 -10 7 0 7 -7 0 -15 -16 -18 -35 -18 -36 -1 -36 13 0 26 -20 26 -41 0 -5 -7 -9 -16 -9 -11 0 -14 -8 -12 -32 3 -29 0 -33 -23 -36 -32 -4 -37 7 -45 96 -6 63 -5 68 19 91 15 14 33 21 41 18 9 -4 16 -2 16 3 0 19 69 11 90 -10z m-1469 -39 c34 -35 36 -59 8 -95 -29 -37 -90 -37 -124 0 -32 34 -32 68 0 99 34 35 78 33 116 -4z m1273 -25 c5 -34 3 -63 -3 -75 -12 -21 -69 -38 -95 -28 -23 9 -43 48 -49 94 -4 38 -3 41 22 46 14 3 27 4 29 2 1 -1 6 -22 10 -45 4 -24 13 -45 21 -48 11 -4 12 5 7 42 -8 54 -3 66 28 66 21 0 24 -6 30 -54z m-1098 10 c15 -11 19 -26 18 -70 0 -64 -4 -71 -38 -62 -24 6 -25 9 -19 52 5 38 3 46 -8 42 -8 -2 -15 -20 -17 -39 -4 -43 -13 -52 -44 -44 -26 7 -26 12 -12 82 10 49 76 71 120 39z m883 5 c11 -7 9 -13 -9 -31 l-22 -22 39 3 c36 3 38 2 36 -26 -5 -68 -93 -95 -139 -41 -28 32 -30 53 -8 84 25 36 74 51 103 33z m-774 -51 c0 -35 4 -45 18 -48 13 -3 17 -11 15 -30 -3 -23 -7 -27 -33 -25 -40 3 -55 27 -55 88 0 58 5 67 35 63 17 -3 20 -10 20 -48z m633 -14 c4 -78 -14 -101 -76 -92 -26 3 -50 1 -62 -6 -16 -10 -24 -9 -47 8 -25 19 -28 29 -31 83 l-3 62 28 -3 c26 -3 28 -7 31 -50 2 -27 8 -48 13 -48 6 0 9 19 7 48 -3 44 -2 47 23 50 25 3 27 0 33 -47 9 -65 26 -66 26 -2 0 49 9 62 40 58 11 -2 16 -18 18 -61z m-526 4 c-4 -41 -2 -50 12 -50 15 0 23 39 17 86 -1 6 12 11 29 12 30 1 30 0 30 -53 0 -64 -21 -96 -66 -97 -65 -2 -91 32 -79 108 6 40 9 44 34 44 28 0 28 -1 23 -50z m208 21 c0 -20 -6 -30 -20 -34 -24 -6 -27 -32 -4 -41 25 -10 34 2 34 48 0 36 4 45 22 49 30 8 38 1 38 -37 0 -46 -19 -95 -40 -106 -55 -30 -130 10 -130 68 0 33 33 68 70 75 14 2 26 5 28 6 1 0 2 -12 2 -28z"/>
<path d="M832 2023 c2 -10 12 -18 23 -18 11 0 21 8 23 18 3 13 -3 17 -23 17 -20 0 -26 -4 -23 -17z"/>
<path d="M1910 1986 c0 -16 26 -40 33 -29 2 4 -4 16 -15 26 -13 13 -18 14 -18 3z"/>
<path d="M380 1552 l0 -200 35 -4 c20 -2 38 -2 40 1 3 2 5 38 5 78 l0 74 63 -6 c91 -9 87 -6 87 -85 l0 -71 43 3 42 3 3 173 c2 133 0 173 -10 176 -7 3 -28 7 -45 10 l-33 6 0 -81 0 -81 -27 6 c-16 2 -49 8 -75 11 l-48 6 0 79 c0 43 -3 81 -7 83 -5 3 -23 8 -40 12 l-33 7 0 -200z"/>
<path d="M2430 1710 c-10 -6 -14 -26 -13 -66 1 -50 -4 -68 -44 -143 -69 -129 -85 -162 -79 -168 2 -3 22 -2 43 2 37 6 41 11 76 81 20 40 41 74 45 74 5 0 26 -33 48 -72 39 -73 39 -73 79 -72 24 1 39 6 37 13 -2 12 -24 55 -86 175 -29 56 -36 79 -36 127 0 58 -1 59 -27 59 -16 0 -35 -4 -43 -10z"/>
<path d="M833 1670 c-24 -4 -46 -10 -50 -14 -5 -4 -8 -71 -8 -148 0 -174 -1 -173 142 -182 54 -4 112 -3 128 2 43 12 58 62 53 178 -4 107 -20 140 -70 148 -116 17 -158 21 -195 16z m166 -75 c5 -6 4 -205 -2 -211 -2 -3 -34 -2 -71 2 l-66 7 0 108 0 109 68 -6 c37 -3 69 -7 71 -9z"/>
<path d="M2070 1666 l-95 -11 -3 -168 -2 -168 121 5 c85 3 125 9 131 18 27 41 29 48 11 49 -27 1 -156 -2 -168 -4 -5 -1 -10 14 -10 33 l0 35 78 9 c77 8 77 8 77 38 l0 30 -77 -4 -78 -3 -3 37 c-4 42 -10 39 133 55 66 8 70 9 70 33 0 23 -4 25 -45 26 -25 1 -88 -3 -140 -10z"/>
<path d="M1812 1632 c-10 -10 -33 -41 -52 -70 -18 -29 -38 -52 -44 -52 -27 1 -56 40 -62 84 -7 46 -7 46 -45 46 -49 0 -51 -6 -47 -180 l3 -135 43 -3 42 -3 0 65 c0 41 4 66 11 66 6 0 42 -30 79 -66 67 -65 68 -65 119 -62 l51 3 -65 55 c-35 30 -64 60 -64 67 -1 6 14 31 32 55 18 24 41 57 51 73 11 17 26 40 34 53 14 22 13 22 -27 22 -26 0 -47 -6 -59 -18z"/>
<path d="M1194 1626 c-17 -13 -19 -29 -22 -134 -3 -113 -2 -120 20 -147 23 -26 27 -27 129 -28 131 -2 159 11 159 74 l0 40 -37 -3 c-30 -2 -38 -8 -43 -28 -5 -21 -12 -25 -50 -28 -89 -7 -90 -5 -90 109 l0 100 68 -3 c61 -3 67 -5 70 -25 3 -19 10 -23 43 -23 39 0 39 0 39 41 0 36 -3 41 -35 55 -47 19 -224 19 -251 0z"/>
<path d="M2183 1224 c-10 -4 -13 -67 -13 -265 0 -142 3 -259 6 -259 3 0 81 -12 172 -26 165 -26 243 -27 265 -5 8 8 13 86 15 252 l3 240 -30 29 c-29 30 -31 30 -138 30 -59 0 -144 2 -188 5 -44 3 -86 2 -92 -1z m324 -274 c2 -91 -1 -171 -6 -179 -7 -11 -26 -11 -117 0 -128 14 -152 23 -111 38 l27 11 0 150 0 151 103 -3 102 -3 2 -165z"/>
<path d="M380 925 c0 -194 3 -295 10 -295 6 0 87 14 180 30 93 17 173 30 178 30 5 0 25 17 45 37 l37 36 0 94 c0 161 -19 177 -201 172 l-124 -4 -3 98 -3 97 -59 0 -60 0 0 -295z m318 -4 c7 -2 0 -131 -7 -136 -15 -9 -231 -37 -244 -32 -7 3 2 11 20 18 31 13 32 15 35 79 l3 65 55 6 c43 5 118 4 138 0z"/>
<path d="M999 1213 c-15 -2 -37 -15 -50 -29 -23 -24 -24 -33 -27 -192 -6 -263 4 -277 181 -268 215 12 264 23 287 65 6 11 10 92 10 189 0 192 -7 212 -78 232 -35 9 -266 12 -323 3z m259 -91 c9 -7 12 -44 10 -153 l-3 -144 -95 -6 c-54 -3 -100 -1 -107 4 -14 10 -19 287 -6 300 9 10 185 8 201 -1z"/>
<path d="M1538 1045 c-1 -96 -2 -203 -3 -237 l0 -63 65 -5 c77 -6 63 -18 205 174 55 74 103 135 107 136 4 0 9 -73 10 -162 l3 -163 58 -3 57 -3 0 251 0 250 -65 0 c-79 0 -72 7 -209 -183 -55 -75 -103 -137 -108 -137 -4 0 -8 72 -8 160 l0 160 -55 0 -55 0 -2 -175z"/>
<path d="M1550 536 c0 -8 7 -16 15 -20 16 -6 21 -51 6 -60 -14 -9 -21 6 -9 21 7 9 8 17 1 24 -13 13 -43 1 -43 -17 0 -8 -4 -14 -10 -14 -5 0 -10 9 -10 20 0 11 -7 20 -15 20 -10 0 -15 -10 -15 -31 0 -17 -4 -28 -10 -24 -5 3 -10 18 -10 31 0 32 -24 27 -28 -5 -4 -24 23 -61 44 -61 7 0 20 10 28 22 l16 22 20 -22 c39 -41 70 -21 70 45 0 32 -5 45 -19 53 -26 13 -31 13 -31 -4z"/>
<path d="M1777 533 c-15 -14 -6 -74 13 -93 23 -23 41 -25 58 -8 18 18 15 65 -4 72 -23 9 -30 -1 -16 -24 7 -12 8 -21 2 -25 -19 -11 -30 6 -30 46 0 37 -8 48 -23 32z"/>
<path d="M1880 496 c0 -69 38 -97 76 -55 21 23 12 47 -24 64 -12 5 -22 15 -22 22 0 7 -7 13 -15 13 -11 0 -15 -12 -15 -44z m50 -31 c0 -8 -4 -15 -10 -15 -5 0 -10 7 -10 15 0 8 5 15 10 15 6 0 10 -7 10 -15z"/>
<path d="M1044 459 c2 -45 15 -68 37 -69 10 0 7 94 -4 108 -22 28 -35 13 -33 -39z"/>
<path d="M1126 494 c-24 -23 -20 -53 9 -66 22 -10 29 -9 48 11 l22 23 -32 -7 c-27 -5 -33 -3 -33 10 0 13 6 16 25 11 27 -7 32 3 13 22 -16 16 -33 15 -52 -4z"/>
<path d="M1228 499 c-27 -15 -23 -57 7 -71 21 -9 28 -8 45 7 25 22 25 37 2 58 -21 19 -30 20 -54 6z"/>
<path d="M1315 500 c-8 -12 3 -69 13 -71 66 -11 71 -9 78 26 7 38 0 55 -22 55 -9 0 -14 -11 -14 -36 0 -31 -2 -35 -15 -24 -8 7 -15 23 -15 36 0 25 -14 32 -25 14z"/>
<path d="M1670 466 c0 -59 24 -85 64 -70 22 8 23 114 2 114 -8 0 -17 -8 -19 -17 -4 -17 -5 -17 -6 0 -1 10 -9 17 -21 17 -17 0 -20 -7 -20 -44z"/>
<path d="M543 473 c-9 -3 -13 -36 -13 -113 l0 -108 128 -31 c300 -72 544 -101 852 -101 301 0 542 29 843 101 l127 31 0 108 c0 106 -4 120 -36 120 -2 0 -4 -43 -4 -95 l0 -94 -37 -10 c-118 -31 -169 -42 -273 -61 -448 -81 -892 -76 -1330 15 -41 9 -93 18 -115 22 -22 3 -44 9 -50 13 -5 4 -22 10 -37 14 l-28 6 0 95 c0 52 -3 95 -7 94 -5 0 -14 -3 -20 -6z"/>
<path d="M2260 439 c0 -11 4 -17 10 -14 18 11 40 -15 40 -46 0 -20 -5 -29 -16 -29 -12 0 -14 7 -9 30 8 37 -15 42 -39 9 -32 -46 25 -95 81 -70 23 11 25 16 21 61 -6 60 -21 80 -59 80 -23 0 -29 -5 -29 -21z"/>
<path d="M635 358 c-8 -69 4 -88 54 -88 14 0 40 -2 58 -6 38 -7 47 6 57 84 6 48 5 52 -13 52 -17 0 -21 -9 -27 -50 -4 -33 -11 -50 -21 -50 -13 0 -12 35 4 93 3 12 -1 17 -16 17 -20 0 -27 -13 -33 -69 -2 -14 -9 -26 -16 -29 -11 -3 -12 7 -7 52 7 52 6 56 -13 56 -17 0 -21 -9 -27 -62z"/>
<path d="M1380 395 c0 -8 5 -15 10 -15 6 0 10 7 10 15 0 8 -4 15 -10 15 -5 0 -10 -7 -10 -15z"/>
<path d="M2173 364 c4 -25 2 -34 -6 -31 -7 2 -13 16 -15 30 -2 19 -9 27 -23 27 -15 0 -19 -7 -19 -33 0 -60 65 -91 94 -44 20 32 10 87 -16 87 -18 0 -20 -5 -15 -36z"/>
<path d="M836 377 c-27 -20 -18 -68 17 -87 24 -13 30 -13 55 0 20 12 28 24 30 52 4 49 -24 61 -36 15 -9 -33 -42 -51 -42 -23 0 9 7 16 15 16 8 0 15 9 15 20 0 23 -27 27 -54 7z"/>
<path d="M2056 382 c-15 -3 -17 -10 -12 -40 3 -21 6 -43 6 -49 0 -7 9 -13 20 -13 19 0 20 4 14 53 -4 28 -7 52 -8 53 0 0 -9 -2 -20 -4z"/>
<path d="M1980 350 c0 -18 -4 -29 -10 -25 -5 3 -10 15 -10 26 0 12 -7 19 -19 19 -17 0 -19 -5 -14 -35 3 -21 1 -35 -5 -35 -12 0 -22 24 -22 51 0 12 -7 19 -20 19 -16 0 -20 -7 -20 -35 0 -42 33 -81 58 -69 9 4 31 7 48 6 41 -2 56 17 52 65 -2 27 -8 39 -20 41 -14 3 -18 -3 -18 -28z"/>
<path d="M968 359 c-10 -5 -18 -19 -18 -29 0 -24 34 -60 55 -60 8 0 15 9 15 20 0 12 -7 20 -16 20 -9 0 -14 6 -11 13 2 6 12 12 23 12 17 0 19 -6 16 -49 -3 -45 6 -65 29 -66 15 0 17 105 3 128 -16 24 -64 30 -96 11z"/>
<path d="M1112 343 c-5 -10 -12 -42 -16 -70 -6 -49 -5 -53 14 -53 13 0 20 7 20 20 0 11 7 20 15 20 8 0 15 7 15 15 0 8 -4 15 -10 15 -5 0 -10 7 -10 15 0 8 5 15 10 15 6 0 10 9 10 20 0 25 -36 27 -48 3z"/>
<path d="M1196 341 c-24 -26 -17 -62 15 -80 24 -13 29 -13 53 2 33 22 34 60 4 81 -30 21 -51 20 -72 -3z m54 -36 c0 -8 -7 -15 -15 -15 -8 0 -15 7 -15 15 0 8 7 15 15 15 8 0 15 -7 15 -15z"/>
<path d="M1699 353 c0 -5 -1 -29 -1 -55 0 -34 -4 -48 -14 -48 -8 0 -14 -9 -14 -20 0 -17 7 -20 53 -20 30 0 56 3 60 6 11 11 -5 34 -23 34 -14 0 -19 12 -25 55 -4 38 -11 55 -21 55 -8 0 -14 -3 -15 -7z"/>
<path d="M1794 329 c3 -17 6 -40 6 -50 0 -13 7 -19 21 -19 19 0 21 4 15 31 -3 17 -6 40 -6 50 0 13 -7 19 -21 19 -19 0 -21 -4 -15 -31z"/>
<path d="M1312 329 c-13 -35 -2 -79 19 -79 15 0 19 7 19 35 0 19 5 35 10 35 6 0 10 -15 10 -34 0 -34 0 -34 46 -34 l45 0 -3 46 -3 47 -68 3 c-61 2 -68 0 -75 -19z m118 -33 c0 -8 -4 -18 -10 -21 -5 -3 -10 3 -10 14 0 12 5 21 10 21 6 0 10 -6 10 -14z"/>
<path d="M1490 312 c0 -21 5 -43 12 -50 19 -19 65 -14 81 8 19 28 10 80 -14 80 -15 0 -19 -7 -19 -35 0 -19 -4 -35 -10 -35 -5 0 -10 16 -10 35 0 28 -4 35 -20 35 -16 0 -20 -7 -20 -38z"/>
<path d="M2057 254 c-9 -10 2 -24 19 -24 8 0 14 7 14 15 0 15 -21 21 -33 9z"/>
<path d="M1800 225 c0 -8 9 -15 20 -15 11 0 20 7 20 15 0 8 -9 15 -20 15 -11 0 -20 -7 -20 -15z"/>
</g>


</svg>